<svg id="Camada_1" xmlns="http://www.w3.org/2000/svg" xmlns:xlink="http://www.w3.org/1999/xlink" viewBox="0 0 723.3 108.8"><style>.st0{fill:#007b00}.st1{fill:#fff}.st2{fill:#e8bc00}.st3{clip-path:url(#SVGID_2_);fill:#004793}</style><path class="st0" d="M649.1 0h74.2v73.8h-74.2z"/><path class="st1" d="M41.3 45.9l-9.1-24.2-8.8 24.2h17.9zm24.2 25.9H51.2l-5.6-14.9H19.4L14 71.8H0L25.4 6.5h14l26.1 65.3zM85.7 34.1h9.8c6.3 0 10.3-.3 11.8-.8 1.6-.5 2.8-1.5 3.7-2.8.9-1.3 1.3-2.9 1.3-4.9 0-2.2-.6-4-1.8-5.3-1.2-1.4-2.8-2.2-5-2.6-1.1-.2-4.3-.2-9.6-.2H85.7v16.6zM72.5 71.8V6.5h27.8c7 0 12.1.6 15.2 1.8 3.2 1.2 5.7 3.3 7.6 6.2 1.9 3 2.9 6.4 2.9 10.3 0 4.9-1.4 9-4.3 12.1-2.9 3.2-7.2 5.2-12.9 6 2.8 1.7 5.2 3.5 7 5.5 1.9 2 4.3 5.5 7.5 10.6l8 12.7h-15.8L106 57.6c-3.4-5.1-5.7-8.3-7-9.6-1.2-1.3-2.6-2.2-4-2.7s-3.6-.7-6.7-.7h-2.7v27.3H72.5zM151.6 17.6v18.6h7.2c5.2 0 8.6-.3 10.4-1 1.7-.7 3.1-1.7 4.1-3.2 1-1.5 1.5-3.1 1.5-5.1 0-2.4-.7-4.3-2.1-5.9-1.4-1.5-3.1-2.5-5.3-2.9-1.6-.3-4.7-.4-9.5-.4h-6.3zm-13.2 54.2V6.5h21.1c8 0 13.2.3 15.7 1 3.7 1 6.9 3.1 9.4 6.4 2.5 3.3 3.8 7.5 3.8 12.7 0 4-.7 7.4-2.2 10.1-1.5 2.7-3.3 4.9-5.5 6.4-2.2 1.6-4.5 2.6-6.8 3.1-3.1.6-7.7.9-13.6.9h-8.6v24.6h-13.3zM199.2 71.8V6.5h48.3v11.1h-35.1v14.5h32.7v11h-32.7v17.7h36.4v11zM260 71.8V6.5h12.8l26.9 43.8V6.5h12.2v65.3h-13.2l-26.5-42.9v42.9zM334.6 64.2h16.3c2.8 0 4.8-.1 5.9-.3 2-.3 3.6-.9 5-1.8 1.3-.8 2.4-2.1 3.3-3.6.9-1.6 1.3-3.4 1.3-5.5 0-2.4-.6-4.6-1.9-6.4-1.2-1.8-3-3.1-5.2-3.8-2.2-.7-5.4-1.1-9.5-1.1h-15.1v22.5zm0-30.2h14.1c3.8 0 6.6-.3 8.2-.8 2.2-.7 3.9-1.7 5-3.3 1.1-1.5 1.7-3.4 1.7-5.7 0-2.2-.5-4.1-1.6-5.7-1-1.7-2.5-2.8-4.5-3.4-1.9-.6-5.2-.9-9.9-.9h-13.1V34zm-8.7 37.8V6.5h24.5c5 0 9 .7 12 2s5.4 3.4 7.1 6.1c1.7 2.7 2.6 5.6 2.6 8.6 0 2.8-.8 5.4-2.3 7.9-1.5 2.5-3.8 4.5-6.8 6 4 1.2 7 3.1 9.1 5.9 2.1 2.8 3.2 6.1 3.2 9.9 0 3.1-.7 5.9-1.9 8.5s-2.9 4.7-4.8 6.1c-1.9 1.4-4.3 2.5-7.1 3.2-2.9.7-6.4 1.1-10.6 1.1h-25zM395.9 35.3h18.5c4 0 7-.4 9.2-1.2 2.2-.8 3.9-2.1 5-3.9 1.2-1.8 1.7-3.7 1.7-5.9 0-3.1-1.1-5.6-3.3-7.6-2.2-2-5.8-3-10.6-3h-20.6v21.6zm-8.6 36.5V6.5h28.9c5.8 0 10.2.6 13.3 1.8 3 1.2 5.4 3.2 7.3 6.2 1.8 3 2.7 6.2 2.7 9.8 0 4.6-1.5 8.5-4.5 11.7-3 3.2-7.6 5.2-13.9 6 2.3 1.1 4 2.2 5.2 3.3 2.5 2.3 4.9 5.2 7.1 8.7l11.3 17.8h-10.8l-8.6-13.6c-2.5-3.9-4.6-6.9-6.2-9-1.6-2.1-3.1-3.5-4.4-4.4-1.3-.8-2.6-1.4-3.9-1.7-1-.2-2.6-.3-4.8-.3h-10v29h-8.7zM464.6 45h22.3L480 26.9c-2.1-5.5-3.6-10-4.7-13.6-.9 4.3-2.1 8.4-3.6 12.6L464.6 45zm-18.8 26.8l25-65.3h9.5l26.6 65.3h-9.8L489.5 52H462l-7.1 19.8h-9.1zM510.9 50.8l8.1-.7c.4 3.3 1.3 6 2.7 8.1 1.4 2.1 3.6 3.8 6.6 5.1 3 1.3 6.3 1.9 10 1.9 3.3 0 6.2-.5 8.7-1.5 2.5-1 4.4-2.3 5.6-4.1 1.2-1.7 1.9-3.6 1.9-5.6 0-2-.6-3.8-1.8-5.3-1.2-1.5-3.1-2.8-5.9-3.8-1.7-.7-5.6-1.7-11.6-3.2-6-1.4-10.2-2.8-12.6-4.1-3.1-1.6-5.4-3.7-6.9-6.1-1.5-2.4-2.3-5.1-2.3-8.1 0-3.3.9-6.4 2.8-9.3 1.9-2.9 4.6-5 8.2-6.5 3.6-1.5 7.6-2.2 12-2.2 4.8 0 9.1.8 12.8 2.3 3.7 1.6 6.5 3.8 8.5 6.9 2 3 3.1 6.5 3.2 10.3l-8.3.6c-.4-4.1-1.9-7.2-4.5-9.3-2.6-2.1-6.4-3.2-11.4-3.2-5.2 0-9 1-11.4 2.9-2.4 1.9-3.6 4.2-3.6 6.9 0 2.3.9 4.3 2.5 5.8 1.7 1.5 6 3.1 13 4.7s11.8 3 14.5 4.2c3.8 1.7 6.6 4 8.4 6.6 1.8 2.7 2.7 5.8 2.7 9.3 0 3.5-1 6.7-3 9.8-2 3.1-4.8 5.5-8.6 7.2-3.7 1.7-7.9 2.6-12.6 2.6-5.9 0-10.8-.9-14.8-2.6-4-1.7-7.1-4.3-9.4-7.8-2.2-3.5-3.3-7.4-3.5-11.8M576.1 6.5h8.7v65.3h-8.7zM599.6 71.8V6.5h8.6v57.7h32.1v7.6z"/><path class="st2" d="M649.1 73v.8h74.2V73l-37.1-61.6z"/><g><defs><path id="SVGID_1_" d="M649.1 0h74.2v73.8h-74.2z"/></defs><clipPath id="SVGID_2_"><use xlink:href="#SVGID_1_" overflow="visible"/></clipPath><path class="st3" d="M686.2 50.4c13 0 23.5 10.5 23.5 23.5s-10.5 23.5-23.5 23.5-23.5-10.5-23.5-23.5 10.5-23.5 23.5-23.5"/></g><g><path class="st1" d="M0 104.6l5.6-14.7h2.1l6 14.7h-2.2l-1.7-4.4H3.7l-1.6 4.4H0zm4.2-6.1h5l-1.5-4.1c-.5-1.2-.8-2.2-1-3-.2.9-.5 1.9-.8 2.8l-1.7 4.3zM14.6 99.8l1.8-.2c.1.7.3 1.3.6 1.8s.8.9 1.5 1.1c.7.3 1.4.4 2.3.4.7 0 1.4-.1 2-.3.6-.2 1-.5 1.3-.9.3-.4.4-.8.4-1.3s-.1-.9-.4-1.2c-.3-.3-.7-.6-1.3-.9-.4-.2-1.3-.4-2.6-.7-1.3-.3-2.3-.6-2.8-.9-.7-.4-1.2-.8-1.6-1.4s-.5-1.2-.5-1.8c0-.7.2-1.4.6-2.1.4-.6 1-1.1 1.8-1.5.8-.3 1.7-.5 2.7-.5 1.1 0 2 .2 2.9.5.8.3 1.5.9 1.9 1.5s.7 1.5.7 2.3l-1.9.5c-.1-.9-.4-1.6-1-2.1s-1.4-.7-2.6-.7c-1.2 0-2 .2-2.6.6-.5.4-.8.9-.8 1.6 0 .5.2 1 .6 1.3.4.3 1.3.7 2.9 1s2.7.7 3.2.9c.9.4 1.5.9 1.9 1.5.4.6.6 1.3.6 2.1s-.2 1.5-.7 2.2c-.4.7-1.1 1.2-1.9 1.6-.8.4-1.8.6-2.8.6-1.3 0-2.4-.2-3.3-.6-.9-.4-1.6-1-2.1-1.7-.5-.8-.8-1.7-.8-2.7zM28.3 99.8l1.8-.2c.1.7.3 1.3.6 1.8s.8.9 1.5 1.1c.7.3 1.4.4 2.3.4.7 0 1.4-.1 2-.3.6-.2 1-.5 1.3-.9.3-.4.4-.8.4-1.3s-.1-.9-.4-1.2c-.3-.3-.7-.6-1.3-.9-.4-.2-1.3-.4-2.6-.7-1.3-.3-2.3-.6-2.8-.9-.7-.4-1.2-.8-1.6-1.4-.3-.5-.5-1.2-.5-1.8 0-.7.2-1.4.6-2.1.4-.6 1-1.1 1.8-1.5.8-.3 1.7-.5 2.7-.5 1.1 0 2 .2 2.9.5.8.3 1.5.9 1.9 1.5.4.7.7 1.5.7 2.3l-1.9.1c-.1-.9-.4-1.6-1-2.1s-1.4-.7-2.6-.7c-1.2 0-2 .2-2.6.6-.5.4-.8.9-.8 1.6 0 .5.2 1 .6 1.3.4.3 1.3.7 2.9 1s2.7.7 3.2.9c.9.4 1.5.9 1.9 1.5.4.6.6 1.3.6 2.1s-.2 1.5-.7 2.2c-.4.7-1.1 1.2-1.9 1.6-.8.4-1.8.6-2.8.6-1.3 0-2.4-.2-3.3-.6-.9-.4-1.6-1-2.1-1.7-.5-.4-.8-1.3-.8-2.3zM42 97.4c0-2.4.7-4.3 2-5.7 1.3-1.4 3-2.1 5.1-2.1 1.4 0 2.6.3 3.7 1 1.1.6 1.9 1.5 2.5 2.7s.9 2.5.9 3.9c0 1.5-.3 2.8-.9 4-.6 1.2-1.5 2.1-2.6 2.7-1.1.6-2.3.9-3.6.9-1.4 0-2.6-.3-3.7-1s-1.9-1.6-2.5-2.7c-.6-1.2-.9-2.4-.9-3.7zm2 0c0 1.8.5 3.2 1.4 4.2 1 1 2.1 1.5 3.6 1.5s2.7-.5 3.6-1.5c.9-1 1.4-2.5 1.4-4.4 0-1.2-.2-2.2-.6-3.1-.4-.9-1-1.6-1.8-2.1s-1.7-.7-2.6-.7c-1.4 0-2.6.5-3.5 1.4-1 1-1.5 2.5-1.5 4.7zM69 99.4l1.9.5c-.4 1.6-1.1 2.8-2.2 3.6-1.1.8-2.4 1.3-3.9 1.3-1.6 0-2.9-.3-3.9-1-1-.6-1.7-1.6-2.3-2.8-.5-1.2-.8-2.5-.8-3.9 0-1.5.3-2.9.9-4 .6-1.1 1.4-2 2.5-2.6 1.1-.6 2.3-.9 3.6-.9 1.5 0 2.7.4 3.7 1.1 1 .7 1.7 1.8 2.1 3.2l-1.9.5c-.3-1.1-.8-1.8-1.5-2.3-.6-.5-1.5-.7-2.4-.7-1.1 0-2.1.3-2.8.8-.8.5-1.3 1.3-1.6 2.2-.3.9-.5 1.8-.5 2.8 0 1.2.2 2.3.5 3.3.4.9.9 1.6 1.7 2.1.8.5 1.6.7 2.5.7 1.1 0 2-.3 2.8-.9.9-.8 1.4-1.8 1.6-3zM73.7 104.6V89.9h1.9v14.7h-1.9zM77.4 104.6L83 89.9h2.1l6 14.7H89l-1.7-4.4h-6.1l-1.6 4.4h-2.2zm4.3-6.1h5l-1.5-4.1c-.5-1.2-.8-2.2-1-3-.2.9-.5 1.9-.8 2.8l-1.7 4.3zM103.2 99.4l1.9.5c-.4 1.6-1.1 2.8-2.2 3.6-1.1.8-2.4 1.3-3.9 1.3-1.6 0-2.9-.3-3.9-1-1-.6-1.7-1.6-2.3-2.8-.5-1.2-.8-2.5-.8-3.9 0-1.5.3-2.9.9-4 .6-1.1 1.4-2 2.5-2.6 1.1-.6 2.3-.9 3.6-.9 1.5 0 2.7.4 3.7 1.1 1 .7 1.7 1.8 2.1 3.2l-1.9.5c-.3-1.1-.8-1.8-1.5-2.3-.6-.5-1.5-.7-2.4-.7-1.1 0-2.1.3-2.8.8-.8.5-1.3 1.3-1.6 2.2-.3.9-.5 1.8-.5 2.8 0 1.2.2 2.3.5 3.3.4.9.9 1.6 1.7 2.1.8.5 1.6.7 2.5.7 1.1 0 2-.3 2.8-.9.8-.8 1.3-1.8 1.6-3zm-5.8 6.7l.5-1.8h1.3l-.3 1.1c.6.1 1 .2 1.3.5.3.3.4.6.4.9 0 .5-.2.9-.7 1.3-.5.4-1.2.6-2.2.6-.5 0-1 0-1.4-.1l.1-1.2h.9c.6 0 1.1-.1 1.3-.3.2-.1.3-.3.3-.5 0-.1 0-.2-.1-.3-.1-.1-.2-.2-.4-.2h-1zM105.9 104.6l5.6-14.7h2.1l6 14.7h-2.2l-1.7-4.4h-6.1l-1.6 4.4h-2.1zm3.5-15.6c0-.7.2-1.2.6-1.7.4-.4.9-.6 1.5-.6.4 0 1 .2 1.7.5.4.2.7.3.9.3.2 0 .4-.1.5-.2.1-.1.2-.3.2-.7h1.3c0 .8-.2 1.3-.6 1.7-.4.4-.8.6-1.4.6-.4 0-1-.2-1.7-.6-.4-.2-.8-.4-1-.4-.2 0-.4.1-.6.2-.1.2-.2.4-.2.7h-1.2zm.8 9.5h5l-1.5-4.1c-.5-1.2-.8-2.2-1-3-.2.9-.5 1.9-.8 2.8l-1.7 4.3zM120.6 97.4c0-2.4.7-4.3 2-5.7 1.3-1.4 3-2.1 5.1-2.1 1.4 0 2.6.3 3.7 1 1.1.6 1.9 1.5 2.5 2.7.6 1.2.9 2.5.9 3.9 0 1.5-.3 2.8-.9 4-.6 1.2-1.5 2.1-2.6 2.7-1.1.6-2.3.9-3.6.9-1.4 0-2.6-.3-3.7-1s-1.9-1.6-2.5-2.7c-.6-1.2-.9-2.4-.9-3.7zm2 0c0 1.8.5 3.2 1.4 4.2 1 1 2.1 1.5 3.6 1.5s2.7-.5 3.6-1.5c.9-1 1.4-2.5 1.4-4.4 0-1.2-.2-2.2-.6-3.1-.4-.9-1-1.6-1.8-2.1s-1.7-.7-2.6-.7c-1.4 0-2.6.5-3.5 1.4-1 1-1.5 2.5-1.5 4.7zM142.8 104.6V89.9h2l7.7 11.5V89.9h1.9v14.7h-2L144.7 93v11.5h-1.9zM156 104.6l5.6-14.7h2.1l6 14.7h-2.2l-1.7-4.4h-6.1l-1.6 4.4H156zm4.3-6.1h5l-1.5-4.1c-.5-1.2-.8-2.2-1-3-.2.9-.5 1.9-.8 2.8l-1.7 4.3zM181.8 99.4l1.9.5c-.4 1.6-1.1 2.8-2.2 3.6-1.1.8-2.4 1.3-3.9 1.3-1.6 0-2.9-.3-3.9-1-1-.6-1.7-1.6-2.3-2.8-.5-1.2-.8-2.5-.8-3.9 0-1.5.3-2.9.9-4 .6-1.1 1.4-2 2.5-2.6 1.1-.6 2.3-.9 3.6-.9 1.5 0 2.7.4 3.7 1.1 1 .7 1.7 1.8 2.1 3.2l-1.9.5c-.3-1.1-.8-1.8-1.5-2.3-.6-.5-1.5-.7-2.4-.7-1.1 0-2.1.3-2.8.8-.8.5-1.3 1.3-1.6 2.2-.3.9-.5 1.8-.5 2.8 0 1.2.2 2.3.5 3.3.4.9.9 1.6 1.7 2.1.8.5 1.6.7 2.5.7 1.1 0 2-.3 2.8-.9.8-.8 1.3-1.8 1.6-3zM186.4 104.6V89.9h1.9v14.7h-1.9zM191.2 97.4c0-2.4.7-4.3 2-5.7 1.3-1.4 3-2.1 5.1-2.1 1.4 0 2.6.3 3.7 1 1.1.6 1.9 1.5 2.5 2.7.6 1.2.9 2.5.9 3.9 0 1.5-.3 2.8-.9 4-.6 1.2-1.5 2.1-2.6 2.7-1.1.6-2.3.9-3.6.9-1.4 0-2.6-.3-3.7-1s-1.9-1.6-2.5-2.7c-.6-1.2-.9-2.4-.9-3.7zm2 0c0 1.8.5 3.2 1.4 4.2 1 1 2.1 1.5 3.6 1.5s2.7-.5 3.6-1.5c.9-1 1.4-2.5 1.4-4.4 0-1.2-.2-2.2-.6-3.1-.4-.9-1-1.6-1.8-2.1s-1.7-.7-2.6-.7c-1.4 0-2.6.5-3.5 1.4-1 1-1.5 2.5-1.5 4.7zM207.7 104.6V89.9h2l7.7 11.5V89.9h1.9v14.7h-2L209.6 93v11.5h-1.9zM220.9 104.6l5.6-14.7h2.1l6 14.7h-2.2l-1.7-4.4h-6.1l-1.6 4.4h-2.1zm4.3-6.1h5l-1.5-4.1c-.5-1.2-.8-2.2-1-3-.2.9-.5 1.9-.8 2.8l-1.7 4.3zM236.1 104.6V89.9h1.9v12.9h7.2v1.7h-9.1zM252.5 104.6V89.9h5.1c1.1 0 2 .1 2.6.2.8.2 1.6.5 2.2 1.1.8.7 1.4 1.5 1.7 2.5.4 1 .6 2.2.6 3.5 0 1.1-.1 2.1-.4 3-.3.9-.6 1.6-1 2.1-.4.6-.9 1-1.3 1.3-.5.3-1.1.6-1.8.7-.7.2-1.5.3-2.4.3h-5.3zm2-1.8h3.1c1 0 1.7-.1 2.3-.3.6-.2 1-.4 1.3-.8.5-.5.8-1.1 1.1-1.9.3-.8.4-1.7.4-2.8 0-1.5-.3-2.7-.8-3.5-.5-.8-1.1-1.4-1.8-1.7-.5-.2-1.4-.3-2.5-.3h-3.1v11.3zM266.8 97.4c0-2.4.7-4.3 2-5.7 1.3-1.4 3-2.1 5.1-2.1 1.4 0 2.6.3 3.7 1 1.1.6 1.9 1.5 2.5 2.7.6 1.2.9 2.5.9 3.9 0 1.5-.3 2.8-.9 4-.6 1.2-1.5 2.1-2.6 2.7-1.1.6-2.3.9-3.6.9-1.4 0-2.6-.3-3.7-1s-1.9-1.6-2.5-2.7c-.7-1.2-.9-2.4-.9-3.7zm2 0c0 1.8.5 3.2 1.4 4.2 1 1 2.1 1.5 3.6 1.5s2.7-.5 3.6-1.5c.9-1 1.4-2.5 1.4-4.4 0-1.2-.2-2.2-.6-3.1-.4-.9-1-1.6-1.8-2.1s-1.7-.7-2.6-.7c-1.4 0-2.6.5-3.5 1.4-1 1-1.5 2.5-1.5 4.7zM282.6 99.8l1.8-.2c.1.7.3 1.3.6 1.8s.8.9 1.5 1.1c.7.3 1.4.4 2.3.4.7 0 1.4-.1 2-.3.6-.2 1-.5 1.3-.9.3-.4.4-.8.4-1.3s-.1-.9-.4-1.2c-.3-.3-.7-.6-1.3-.9-.4-.2-1.3-.4-2.6-.7-1.3-.3-2.3-.6-2.8-.9-.7-.4-1.2-.8-1.6-1.4s-.5-1.2-.5-1.8c0-.7.2-1.4.6-2.1.4-.6 1-1.1 1.8-1.5.8-.3 1.7-.5 2.7-.5 1.1 0 2 .2 2.9.5.8.3 1.5.9 1.9 1.5s.7 1.5.7 2.3l-1.9.1c-.1-.9-.4-1.6-1-2.1s-1.4-.7-2.6-.7c-1.2 0-2 .2-2.6.6-.5.4-.8.9-.8 1.6 0 .5.2 1 .6 1.3.4.3 1.3.7 2.9 1s2.7.7 3.2.9c.9.4 1.5.9 1.9 1.5.4.6.6 1.3.6 2.1s-.2 1.5-.7 2.2c-.4.7-1.1 1.2-1.9 1.6s-1.8.6-2.8.6c-1.3 0-2.4-.2-3.3-.6-.9-.4-1.6-1-2.1-1.7-.5-.4-.7-1.3-.8-2.3zM302.7 104.6V89.9h6.5c1.3 0 2.3.1 3 .4.7.3 1.2.7 1.6 1.4s.6 1.4.6 2.2c0 1-.3 1.9-1 2.6-.7.7-1.7 1.2-3.1 1.4.5.2.9.5 1.2.7.6.5 1.1 1.2 1.6 2l2.6 4h-2.4l-1.9-3.1c-.6-.9-1-1.6-1.4-2-.4-.5-.7-.8-1-1-.3-.2-.6-.3-.9-.4-.2 0-.6-.1-1.1-.1h-2.3v6.5h-2zm1.9-8.2h4.2c.9 0 1.6-.1 2.1-.3.5-.2.9-.5 1.1-.9.3-.4.4-.8.4-1.3 0-.7-.3-1.3-.8-1.7-.5-.4-1.3-.7-2.4-.7h-4.6v4.9zM317.5 104.6V89.9h10.6v1.7h-8.7v4.5h8.1v1.7h-8.1v5h9v1.7h-10.9zM338 98.8v-1.7h6.2v5.4c-1 .8-1.9 1.3-3 1.7-1 .4-2.1.6-3.1.6-1.4 0-2.8-.3-3.9-.9-1.2-.6-2.1-1.5-2.7-2.7-.6-1.2-.9-2.5-.9-3.9s.3-2.8.9-4c.6-1.2 1.5-2.2 2.6-2.8s2.4-.9 3.9-.9c1.1 0 2 .2 2.9.5.9.3 1.5.8 2 1.4.5.6.9 1.4 1.1 2.4l-1.8.5c-.2-.7-.5-1.3-.8-1.8-.3-.4-.8-.8-1.4-1-.6-.3-1.3-.4-2-.4-.9 0-1.7.1-2.3.4-.6.3-1.2.6-1.6 1.1s-.7.9-.9 1.5c-.4.9-.6 1.9-.6 3 0 1.3.2 2.4.7 3.3.5.9 1.1 1.5 2 2 .9.4 1.8.6 2.7.6.8 0 1.7-.2 2.5-.5s1.4-.7 1.8-1v-2.7H338zM347.4 104.6V89.9h1.9v14.7h-1.9zM352.1 99.8l1.8-.2c.1.7.3 1.3.6 1.8s.8.9 1.5 1.1c.7.3 1.4.4 2.3.4.7 0 1.4-.1 2-.3.6-.2 1-.5 1.3-.9.3-.4.4-.8.4-1.3s-.1-.9-.4-1.2c-.3-.3-.7-.6-1.3-.9-.4-.2-1.3-.4-2.6-.7-1.3-.3-2.3-.6-2.8-.9-.7-.4-1.2-.8-1.6-1.4s-.5-1.2-.5-1.8c0-.7.2-1.4.6-2.1.4-.6 1-1.1 1.8-1.5.8-.3 1.7-.5 2.7-.5 1.1 0 2 .2 2.9.5.8.3 1.5.9 1.9 1.5.4.7.7 1.5.7 2.3l-1.9.1c-.1-.9-.4-1.6-1-2.1s-1.4-.7-2.6-.7c-1.2 0-2 .2-2.6.6-.5.4-.8.9-.8 1.6 0 .5.2 1 .6 1.3.4.3 1.3.7 2.9 1 1.6.4 2.7.7 3.2.9.9.4 1.5.9 1.9 1.5.4.6.6 1.3.6 2.1s-.2 1.5-.7 2.2c-.4.7-1.1 1.2-1.9 1.6s-1.8.6-2.8.6c-1.3 0-2.4-.2-3.3-.6-.9-.4-1.6-1-2.1-1.7-.5-.4-.8-1.3-.8-2.3zM370.2 104.6v-13h-4.8v-1.7H377v1.7h-4.9v12.9h-1.9zM379 104.6V89.9h6.5c1.3 0 2.3.1 3 .4.7.3 1.2.7 1.6 1.4s.6 1.4.6 2.2c0 1-.3 1.9-1 2.6-.7.7-1.7 1.2-3.1 1.4.5.2.9.5 1.2.7.6.5 1.1 1.2 1.6 2l2.6 4h-2.4l-1.9-3.1c-.6-.9-1-1.6-1.4-2-.4-.5-.7-.8-1-1-.3-.2-.6-.3-.9-.4-.2 0-.6-.1-1.1-.1H381v6.5h-2zm1.9-8.2h4.2c.9 0 1.6-.1 2.1-.3.5-.2.9-.5 1.1-.9.3-.4.4-.8.4-1.3 0-.7-.3-1.3-.8-1.7-.5-.4-1.3-.7-2.4-.7h-4.6v4.9zM392.1 104.6l5.6-14.7h2.1l6 14.7h-2.2l-1.7-4.4h-6.1l-1.6 4.4h-2.1zm4.3-6.1h5l-1.5-4.1c-.5-1.2-.8-2.2-1-3-.2.9-.5 1.9-.8 2.8l-1.7 4.3zM407.4 104.6V89.9h5.1c1.1 0 2 .1 2.6.2.8.2 1.6.5 2.2 1.1.8.7 1.4 1.5 1.7 2.5.4 1 .6 2.2.6 3.5 0 1.1-.1 2.1-.4 3-.3.9-.6 1.6-1 2.1-.4.6-.9 1-1.3 1.3-.5.3-1.1.6-1.8.7-.7.2-1.5.3-2.4.3h-5.3zm2-1.8h3.1c1 0 1.7-.1 2.3-.3.6-.2 1-.4 1.3-.8.5-.5.8-1.1 1.1-1.9.3-.8.4-1.7.4-2.8 0-1.5-.3-2.7-.8-3.5s-1.1-1.4-1.8-1.7c-.5-.2-1.4-.3-2.5-.3h-3.1v11.3zM421.6 97.4c0-2.4.7-4.3 2-5.7 1.3-1.4 3-2.1 5.1-2.1 1.4 0 2.6.3 3.7 1 1.1.6 1.9 1.5 2.5 2.7s.9 2.5.9 3.9c0 1.5-.3 2.8-.9 4-.6 1.2-1.5 2.1-2.6 2.7-1.1.6-2.3.9-3.6.9-1.4 0-2.6-.3-3.7-1s-1.9-1.6-2.5-2.7c-.6-1.2-.9-2.4-.9-3.7zm2 0c0 1.8.5 3.2 1.4 4.2 1 1 2.1 1.5 3.6 1.5s2.7-.5 3.6-1.5c.9-1 1.4-2.5 1.4-4.4 0-1.2-.2-2.2-.6-3.1-.4-.9-1-1.6-1.8-2.1s-1.7-.7-2.6-.7c-1.4 0-2.6.5-3.5 1.4-1 1-1.5 2.5-1.5 4.7zM438.2 104.6V89.9h6.5c1.3 0 2.3.1 3 .4.7.3 1.2.7 1.6 1.4s.6 1.4.6 2.2c0 1-.3 1.9-1 2.6-.7.7-1.7 1.2-3.1 1.4.5.2.9.5 1.2.7.6.5 1.1 1.2 1.6 2l2.6 4h-2.4l-1.9-3.1c-.6-.9-1-1.6-1.4-2-.4-.5-.7-.8-1-1-.3-.2-.6-.3-.9-.4-.2 0-.6-.1-1.1-.1h-2.3v6.5h-2zm1.9-8.2h4.2c.9 0 1.6-.1 2.1-.3.5-.2.9-.5 1.1-.9.3-.4.4-.8.4-1.3 0-.7-.3-1.3-.8-1.7-.5-.4-1.3-.7-2.4-.7h-4.6v4.9zM453 104.6V89.9h10.6v1.7h-8.7v4.5h8.1v1.7h-8.1v5h9v1.7H453zM466 99.8l1.8-.2c.1.7.3 1.3.6 1.8s.8.9 1.5 1.1c.7.3 1.4.4 2.3.4.7 0 1.4-.1 2-.3.6-.2 1-.5 1.3-.9.3-.4.4-.8.4-1.3s-.1-.9-.4-1.2c-.3-.3-.7-.6-1.3-.9-.4-.2-1.3-.4-2.6-.7-1.3-.3-2.3-.6-2.8-.9-.7-.4-1.2-.8-1.6-1.4s-.5-1.2-.5-1.8c0-.7.2-1.4.6-2.1.4-.6 1-1.1 1.8-1.5.8-.3 1.7-.5 2.7-.5 1.1 0 2 .2 2.9.5.8.3 1.5.9 1.9 1.5s.7 1.5.7 2.3l-1.9.1c-.1-.9-.4-1.6-1-2.1s-1.4-.7-2.6-.7c-1.2 0-2 .2-2.6.6-.5.4-.8.9-.8 1.6 0 .5.2 1 .6 1.3.4.3 1.3.7 2.9 1s2.7.7 3.2.9c.9.4 1.5.9 1.9 1.5.4.6.6 1.3.6 2.1s-.2 1.5-.7 2.2c-.4.7-1.1 1.2-1.9 1.6s-1.8.6-2.8.6c-1.3 0-2.4-.2-3.3-.6-.9-.4-1.6-1-2.1-1.7-.5-.4-.8-1.3-.8-2.3zM486 104.6V89.9h5.1c1.1 0 2 .1 2.6.2.8.2 1.6.5 2.2 1.1.8.7 1.4 1.5 1.7 2.5.4 1 .6 2.2.6 3.5 0 1.1-.1 2.1-.4 3-.3.9-.6 1.6-1 2.1-.4.6-.9 1-1.3 1.3-.5.3-1.1.6-1.8.7-.7.2-1.5.3-2.4.3H486zm1.9-1.8h3.1c1 0 1.7-.1 2.3-.3.6-.2 1-.4 1.3-.8.5-.5.8-1.1 1.1-1.9.3-.8.4-1.7.4-2.8 0-1.5-.3-2.7-.8-3.5-.5-.8-1.1-1.4-1.8-1.7-.5-.2-1.4-.3-2.5-.3h-3.1v11.3zM500.8 104.6V89.9h10.6v1.7h-8.7v4.5h8.1v1.7h-8.1v5h9v1.7h-10.9zM520.2 104.6V89.9h5.5c1 0 1.7 0 2.2.1.7.1 1.3.3 1.8.7.5.3.9.8 1.2 1.4.3.6.4 1.3.4 2 0 1.2-.4 2.3-1.2 3.2-.8.9-2.2 1.3-4.3 1.3H522v6h-1.8zm1.9-7.7h3.8c1.3 0 2.1-.2 2.7-.7.5-.5.8-1.1.8-2 0-.6-.2-1.1-.5-1.6-.3-.4-.7-.7-1.2-.9-.3-.1-.9-.1-1.8-.1h-3.8v5.3zM533.9 104.6V89.9h10.6v1.7h-8.7v4.5h8.1v1.7h-8.1v5h9v1.7h-10.9zM546.8 99.8l1.8-.2c.1.7.3 1.3.6 1.8s.8.9 1.5 1.1c.7.3 1.4.4 2.3.4.7 0 1.4-.1 2-.3.6-.2 1-.5 1.3-.9.3-.4.4-.8.4-1.3s-.1-.9-.4-1.2c-.3-.3-.7-.6-1.3-.9-.4-.2-1.3-.4-2.6-.7-1.3-.3-2.3-.6-2.8-.9-.7-.4-1.2-.8-1.6-1.4s-.5-1.2-.5-1.8c0-.7.2-1.4.6-2.1.4-.6 1-1.1 1.8-1.5.8-.3 1.7-.5 2.7-.5 1.1 0 2 .2 2.9.5.8.3 1.5.9 1.9 1.5.4.7.7 1.5.7 2.3l-1.9.1c-.1-.9-.4-1.6-1-2.1s-1.4-.7-2.6-.7c-1.2 0-2 .2-2.6.6-.5.4-.8.9-.8 1.6 0 .5.2 1 .6 1.3.4.3 1.3.7 2.9 1s2.7.7 3.2.9c.9.4 1.5.9 1.9 1.5.4.6.6 1.3.6 2.1s-.2 1.5-.7 2.2c-.4.7-1.1 1.2-1.9 1.6s-1.8.6-2.8.6c-1.3 0-2.4-.2-3.3-.6-.9-.4-1.6-1-2.1-1.7-.5-.4-.7-1.3-.8-2.3zM560.5 99.8l1.8-.2c.1.7.3 1.3.6 1.8s.8.9 1.5 1.1c.7.3 1.4.4 2.3.4.7 0 1.4-.1 2-.3.6-.2 1-.5 1.3-.9.3-.4.4-.8.4-1.3s-.1-.9-.4-1.2c-.3-.3-.7-.6-1.3-.9-.4-.2-1.3-.4-2.6-.7-1.3-.3-2.3-.6-2.8-.9-.7-.4-1.2-.8-1.6-1.4s-.5-1.2-.5-1.8c0-.7.2-1.4.6-2.1.4-.6 1-1.1 1.8-1.5.8-.3 1.7-.5 2.7-.5 1.1 0 2 .2 2.9.5.8.3 1.5.9 1.9 1.5s.7 1.5.7 2.3l-1.9.1c-.1-.9-.4-1.6-1-2.1s-1.4-.7-2.6-.7c-1.2 0-2 .2-2.6.6-.5.4-.8.9-.8 1.6 0 .5.2 1 .6 1.3.4.3 1.3.7 2.9 1s2.7.7 3.2.9c.9.4 1.5.9 1.9 1.5.4.6.6 1.3.6 2.1s-.2 1.5-.7 2.2c-.4.7-1.1 1.2-1.9 1.6s-1.8.6-2.8.6c-1.3 0-2.4-.2-3.3-.6-.9-.4-1.6-1-2.1-1.7-.5-.4-.8-1.3-.8-2.3zM574.3 97.4c0-2.4.7-4.3 2-5.7 1.3-1.4 3-2.1 5.1-2.1 1.4 0 2.6.3 3.7 1 1.1.6 1.9 1.5 2.5 2.7.6 1.2.9 2.5.9 3.9 0 1.5-.3 2.8-.9 4-.6 1.2-1.5 2.1-2.6 2.7-1.1.6-2.3.9-3.6.9-1.4 0-2.6-.3-3.7-1s-1.9-1.6-2.5-2.7c-.7-1.2-.9-2.4-.9-3.7zm2 0c0 1.8.5 3.2 1.4 4.2 1 1 2.1 1.5 3.6 1.5s2.7-.5 3.6-1.5c.9-1 1.4-2.5 1.4-4.4 0-1.2-.2-2.2-.6-3.1-.4-.9-1-1.6-1.8-2.1s-1.7-.7-2.6-.7c-1.4 0-2.6.5-3.5 1.4-1.1 1-1.5 2.5-1.5 4.7zM589.2 104.6l5.6-14.7h2.1l6 14.7h-2.2l-1.7-4.4h-6.1l-1.6 4.4h-2.1zm4.2-6.1h5l-1.5-4.1c-.5-1.2-.8-2.2-1-3-.2.9-.5 1.9-.8 2.8l-1.7 4.3zM603.8 99.8l1.8-.2c.1.7.3 1.3.6 1.8s.8.9 1.5 1.1c.7.3 1.4.4 2.3.4.7 0 1.4-.1 2-.3.6-.2 1-.5 1.3-.9.3-.4.4-.8.4-1.3s-.1-.9-.4-1.2c-.3-.3-.7-.6-1.3-.9-.4-.2-1.3-.4-2.6-.7-1.3-.3-2.3-.6-2.8-.9-.7-.4-1.2-.8-1.6-1.4s-.5-1.2-.5-1.8c0-.7.2-1.4.6-2.1.4-.6 1-1.1 1.8-1.5.8-.3 1.7-.5 2.7-.5 1.1 0 2 .2 2.9.5.8.3 1.5.9 1.9 1.5.4.7.7 1.5.7 2.3l-1.9.1c-.1-.9-.4-1.6-1-2.1s-1.4-.7-2.6-.7c-1.2 0-2 .2-2.6.6-.5.4-.8.9-.8 1.6 0 .5.2 1 .6 1.3.4.3 1.3.7 2.9 1s2.7.7 3.2.9c.9.4 1.5.9 1.9 1.5.4.6.6 1.3.6 2.1s-.2 1.5-.7 2.2c-.4.7-1.1 1.2-1.9 1.6s-1.8.6-2.8.6c-1.3 0-2.4-.2-3.3-.6-.9-.4-1.6-1-2.1-1.7-.5-.4-.8-1.3-.8-2.3zM623.8 104.6V89.9h2l7.7 11.5V89.9h1.9v14.7h-2L625.7 93v11.5h-1.9zM637 104.6l5.6-14.7h2.1l6 14.7h-2.2l-1.7-4.4h-6.1l-1.6 4.4H637zm4.2-6.1h5l-1.5-4.1c-.5-1.2-.8-2.2-1-3-.2.9-.5 1.9-.8 2.8l-1.7 4.3zM654.5 104.6v-13h-4.8v-1.7h11.6v1.7h-4.9v12.9h-1.9zM672.9 89.9h1.9v8.5c0 1.5-.2 2.6-.5 3.5-.3.9-.9 1.6-1.8 2.1s-2 .8-3.4.8-2.5-.2-3.4-.7c-.9-.5-1.5-1.2-1.9-2.1-.4-.9-.6-2.1-.6-3.7v-8.5h1.9v8.5c0 1.3.1 2.2.4 2.8.2.6.6 1.1 1.2 1.4.6.3 1.3.5 2.1.5 1.4 0 2.4-.3 3.1-1 .6-.6.9-1.9.9-3.7v-8.4zM678.1 104.6V89.9h6.5c1.3 0 2.3.1 3 .4.7.3 1.2.7 1.6 1.4.4.7.6 1.4.6 2.2 0 1-.3 1.9-1 2.6-.7.7-1.7 1.2-3.1 1.4.5.2.9.5 1.2.7.6.5 1.1 1.2 1.6 2l2.6 4h-2.4l-1.9-3.1c-.6-.9-1-1.6-1.4-2-.4-.5-.7-.8-1-1-.3-.2-.6-.3-.9-.4-.2 0-.6-.1-1.1-.1h-2.3v6.5h-2zm2-8.2h4.2c.9 0 1.6-.1 2.1-.3.5-.2.9-.5 1.1-.9.3-.4.4-.8.4-1.3 0-.7-.3-1.3-.8-1.7-.5-.4-1.3-.7-2.4-.7h-4.6v4.9zM691.3 104.6l5.6-14.7h2.1l6 14.7h-2.2l-1.7-4.4H695l-1.6 4.4h-2.1zm4.2-6.1h5l-1.5-4.1c-.5-1.2-.8-2.2-1-3-.2.9-.5 1.9-.8 2.8l-1.7 4.3zM706.9 104.6V89.9h1.9v14.7h-1.9zM711.6 99.8l1.8-.2c.1.7.3 1.3.6 1.8s.8.9 1.5 1.1c.7.3 1.4.4 2.3.4.7 0 1.4-.1 2-.3.6-.2 1-.5 1.3-.9.3-.4.4-.8.4-1.3s-.1-.9-.4-1.2c-.3-.3-.7-.6-1.3-.9-.4-.2-1.3-.4-2.6-.7-1.3-.3-2.3-.6-2.8-.9-.7-.4-1.2-.8-1.6-1.4s-.5-1.2-.5-1.8c0-.7.2-1.4.6-2.1.4-.6 1-1.1 1.8-1.5.8-.3 1.7-.5 2.7-.5 1.1 0 2 .2 2.9.5.8.3 1.5.9 1.9 1.5.4.7.7 1.5.7 2.3l-1.9.1c-.1-.9-.4-1.6-1-2.1s-1.4-.7-2.6-.7c-1.2 0-2 .2-2.6.6-.5.4-.8.9-.8 1.6 0 .5.2 1 .6 1.3.4.3 1.3.7 2.9 1s2.7.7 3.2.9c.9.4 1.5.9 1.9 1.5.4.6.6 1.3.6 2.1s-.2 1.5-.7 2.2c-.4.7-1.1 1.2-1.9 1.6s-1.8.6-2.8.6c-1.3 0-2.4-.2-3.3-.6-.9-.4-1.6-1-2.1-1.7-.5-.4-.8-1.3-.8-2.3z"/></g></svg>