<svg id="Layer_2" xmlns="http://www.w3.org/2000/svg" viewBox="0 0 458.4 126.3"><style>.st0{fill:#fff}.st1{fill:#d1d3d4}</style><path class="st0" d="M305.6 31.8c-1.1.6-3.5 1.2-6.4 1.2-6.8 0-11.9-4.3-11.9-12.3 0-7.6 5.1-12.7 12.7-12.7 3 0 4.9.6 5.8 1.1l-.8 2.6c-1.2-.6-2.8-1-4.9-1-5.7 0-9.5 3.6-9.5 10 0 6 3.4 9.7 9.3 9.7 1.9 0 3.9-.4 5.1-1l.6 2.4zM329.5 20.2c0 8.3-5.1 12.8-11.3 12.8-6.4 0-10.9-5-10.9-12.3C307.3 13 312 8 318.5 8c6.7-.1 11 5 11 12.2zm-18.8.4c0 5.2 2.8 9.9 7.8 9.9s7.8-4.6 7.8-10.1c0-4.9-2.5-9.9-7.7-9.9-5.4 0-7.9 4.8-7.9 10.1zM333.6 32.6V8.4h3.5l7.7 12.3c1.8 2.8 3.2 5.4 4.3 7.9h.1c-.3-3.2-.4-6.2-.4-10V8.4h2.9v24.2h-3.2l-7.7-12.3c-1.7-2.7-3.3-5.5-4.5-8.1h-.1c.2 3.1.2 6 .2 10v10.4h-2.8zM356.8 28.8c1.4.9 3.4 1.6 5.6 1.6 3.2 0 5.1-1.7 5.1-4.1 0-2.2-1.3-3.6-4.6-4.8-4-1.4-6.4-3.5-6.4-6.9 0-3.8 3.1-6.6 7.8-6.6 2.4 0 4.3.6 5.3 1.2l-.9 2.6c-.8-.5-2.4-1.2-4.6-1.2-3.3 0-4.6 2-4.6 3.6 0 2.3 1.5 3.4 4.8 4.7 4.1 1.6 6.1 3.6 6.1 7.1 0 3.7-2.7 7-8.5 7-2.3 0-4.9-.7-6.2-1.6l1.1-2.6zM387.5 21.2h-9.4V30h10.5v2.6h-13.7V8.4H388V11h-10v7.7h9.4v2.5zM392.6 8.4h3.2V30h10.4v2.6h-13.5V8.4zM412.8 8.4v10.1h11.7V8.4h3.2v24.2h-3.2V21.2h-11.7v11.4h-3.2V8.4h3.2zM453.8 20.2c0 8.3-5.1 12.8-11.3 12.8-6.4 0-10.9-5-10.9-12.3 0-7.7 4.7-12.7 11.2-12.7 6.7-.1 11 5 11 12.2zm-18.8.4c0 5.2 2.8 9.9 7.8 9.9s7.8-4.6 7.8-10.1c0-4.9-2.5-9.9-7.7-9.9-5.3 0-7.9 4.8-7.9 10.1zM288.7 75.8V51.5h3.5l7.7 12.3c1.8 2.8 3.2 5.4 4.3 7.9h.1c-.3-3.2-.4-6.2-.4-10V51.5h2.9v24.2h-3.2L296 63.5c-1.7-2.7-3.3-5.5-4.5-8.1h-.1c.2 3.1.2 6 .2 10v10.4h-2.9zM316.3 68.1l-2.5 7.6h-3.2l8.3-24.2h3.7l8.3 24.2h-3.3l-2.6-7.6h-8.7zm8-2.4l-2.4-7c-.5-1.6-.9-3-1.3-4.4h-.1c-.4 1.4-.7 2.9-1.2 4.4l-2.4 7h7.4zM350.7 75c-1.1.6-3.5 1.2-6.4 1.2-6.8 0-11.9-4.3-11.9-12.3 0-7.6 5.1-12.7 12.7-12.7 3 0 4.9.6 5.8 1.1l-.8 2.6c-1.2-.6-2.8-1-4.9-1-5.7 0-9.5 3.6-9.5 10 0 6 3.4 9.7 9.3 9.7 1.9 0 3.9-.4 5.1-1l.6 2.4zM357.8 51.5v24.2h-3.2V51.5h3.2zM384 63.4c0 8.3-5.1 12.8-11.3 12.8-6.4 0-10.9-5-10.9-12.3 0-7.7 4.7-12.7 11.2-12.7 6.7-.1 11 5 11 12.2zm-18.8.4c0 5.2 2.8 9.9 7.8 9.9s7.8-4.6 7.8-10.1c0-4.9-2.5-9.9-7.7-9.9-5.4-.1-7.9 4.8-7.9 10.1zM388.1 75.8V51.5h3.5l7.7 12.3c1.8 2.8 3.2 5.4 4.3 7.9h.1c-.3-3.2-.4-6.2-.4-10V51.5h3v24.2h-3.2l-7.7-12.3c-1.7-2.7-3.3-5.5-4.5-8.1h-.1c.2 3.1.2 6 .2 10v10.4h-2.9zM415.7 68.1l-2.5 7.6H410l8.3-24.2h3.7l8.3 24.2H427l-2.6-7.6h-8.7zm7.9-2.4l-2.4-7c-.5-1.6-.9-3-1.3-4.4h-.1c-.4 1.4-.7 2.9-1.2 4.4l-2.4 7h7.4zM433.7 51.5h3.2v21.6h10.4v2.6h-13.5V51.5zM288.7 95c1.9-.3 4.2-.5 6.7-.5 4.5 0 7.7 1.1 9.8 3 2.2 2 3.5 4.8 3.5 8.7 0 4-1.3 7.2-3.5 9.4-2.3 2.3-6 3.5-10.8 3.5-2.3 0-4.1-.1-5.7-.3V95zm3.1 21.5c.8.1 1.9.1 3.2.1 6.7 0 10.3-3.7 10.3-10.3 0-5.7-3.2-9.4-9.8-9.4-1.6 0-2.8.1-3.7.3v19.3zM325.2 107.6h-9.4v8.7h10.5v2.6h-13.7V94.7h13.1v2.6h-10v7.7h9.4v2.6zM342.9 94.7h3.2v16.2c0 6.4-3.2 8.4-7.3 8.4-1.2 0-2.6-.3-3.3-.6l.4-2.6c.6.3 1.6.5 2.7.5 2.8 0 4.4-1.3 4.4-6V94.7zM354.4 94.7v14.4c0 5.4 2.4 7.7 5.6 7.7 3.6 0 5.9-2.4 5.9-7.7V94.7h3.2v14.2c0 7.4-3.9 10.5-9.2 10.5-5 0-8.7-2.8-8.7-10.4V94.7h3.2zM374.2 115.1c1.4.9 3.4 1.6 5.6 1.6 3.2 0 5.1-1.7 5.1-4.1 0-2.2-1.3-3.6-4.6-4.8-4-1.4-6.4-3.5-6.4-6.9 0-3.8 3.1-6.6 7.8-6.6 2.4 0 4.3.6 5.3 1.2l-.9 2.6c-.8-.5-2.4-1.2-4.6-1.2-3.3 0-4.6 2-4.6 3.6 0 2.3 1.5 3.4 4.8 4.7 4.1 1.6 6.2 3.6 6.2 7.1 0 3.7-2.7 7-8.5 7-2.3 0-4.9-.7-6.2-1.6l1-2.6zM396.9 97.4h-7.4v-2.7h17.9v2.7H400V119h-3.2V97.4zM413.3 94.7v24.2h-3.2V94.7h3.2zM435.7 118.1c-1.1.6-3.3 1.1-6.3 1.2l-.9 1.4c1.4.3 2.5 1.2 2.5 2.7 0 2.1-1.8 2.9-3.7 2.9-.9 0-1.9-.3-2.6-.6l.5-1.6c.5.3 1.3.5 2 .5.8 0 1.5-.3 1.5-1.1 0-.9-1.1-1.3-2.8-1.5l1.5-2.7c-5.9-.7-10.2-4.9-10.2-12.2 0-7.6 5.1-12.7 12.7-12.7 3 0 4.9.6 5.7 1.1l-.8 2.6c-1.2-.6-2.9-1-4.9-1-5.7 0-9.5 3.6-9.5 10 0 6 3.4 9.7 9.3 9.7 1.9 0 3.8-.4 5.1-1l.9 2.3zM443.9 111.3l-2.5 7.6h-3.2l8.3-24.2h3.7l8.3 24.2h-3.3l-2.6-7.6h-8.7zm8-2.4l-2.4-7c-.5-1.6-.9-3-1.3-4.4h-.1c-.4 1.4-.7 2.9-1.2 4.4l-2.4 7h7.4zM63.4 123.4c20.2 0 28.7-3.9 28.7-3.9V99.6S80 105.5 67 105.5c-13 0-41.2-8.7-41.5-40.7C15.1 68.2 6.8 71.4.8 74c6.1 45.1 43.6 49.4 62.6 49.4z"/><path class="st1" d="M64.7 19.6c18.9 0 27.4 7.8 27.4 7.8V6.2S85.9 0 67.3 0C43.2 0-1.9 10.8.1 64.6c.1 3.3.4 6.3.8 9.3 6-2.5 14.3-5.7 24.7-9.2v-.4C25.5 32 45.8 19.6 64.7 19.6zM94.4 6.2v41.5c15.6-2.7 32.7-5.1 51.4-6.7-13.9-16.2-33.3-32.5-51.4-34.8z"/><path class="st0" d="M178.3 39.1v46.5S171.8 81 161 62.1c-3.4-6-8.7-13.5-15.2-21-18.7 1.6-35.9 3.9-51.4 6.7v73.1h23.8V44.1S133 57.4 148 83.5c22.7 35.4 42.6 37.8 55.7 40.1V38.7c-7.6-.1-16 0-25.4.4z"/><path class="st1" d="M178.3 2v37.1c9.4-.4 17.8-.5 25.5-.4V2h-25.5z"/><path class="st0" d="M230.6 91.4s-.3 15.7-24.8 10.8v21.5s7.2 1.6 16.6 1.6c9.5 0 33.6-6.5 33.6-33.9V44.6c-6.2-1.8-14.4-3.5-25.5-4.6v51.4z"/><path class="st1" d="M230.6 2v38c11 1.1 19.3 2.7 25.5 4.6V2h-25.5z"/></svg>