<svg xmlns="http://www.w3.org/2000/svg" viewBox="0 0 156.118 54.743"><defs><style>.a{fill:#f4d431}.a,.b,.c,.d{fill-rule:evenodd}.b,.f{fill:#82d1f4}.c{fill:#57a5df}.d,.e{fill:#b5d441}</style></defs><path class="a" d="M1.899 25.601c-.965.558-2.094 1.682-1.87 2.776.306 1.523 1.846 2.582 3.129 3.459.876.6 2.152.288 3.082.788 1.353.724 2.323 2.035 3.641 2.8a17.672 17.672 0 0 0 4.74 2.059c1.2.294 2.652.606 3.711-.036.594-.358.023-1.423-.265-2.052a5.7 5.7 0 0 0-1.806-2.441c-.994-.659-2.306-.612-3.417-1.041a19.883 19.883 0 0 1-4.276-1.97c-1.6-1.135-2.611-2.994-4.253-4.064a3.046 3.046 0 0 0-1.576-.482 1.635 1.635 0 0 0-.841.206m21.584.006c-.47 1.729 1.865 3.382 1.57 5.152-.206 1.2-2.617 1.111-2.823 2.305-.406 2.329 1.341 4.629 1.206 6.987-.041.835-1.529 1.035-1.688 1.858-.112.565 1.394.876 1.07 1.353a4.684 4.684 0 0 1-3.2 1.752 3.491 3.491 0 0 1-1.812-.429 3.85 3.85 0 0 0-1.723-.447c-.641.047-.835 1.282-1.476 1.235-1.365-.094-2.423-1.441-3.782-1.588-.323-.035-.606.23-.876.494-.294.294-.588.582-.929.482-.523-.141.141-1.37-.359-1.588a6.06 6.06 0 0 0-4.376-.47c-.729.276-1.089 1.853-.447 2.294 1.858 1.265 4.3 1.311 6.493 1.829 2.117.506 4.258.947 6.416 1.247a10.813 10.813 0 0 0 1.753.053 8.3 8.3 0 0 1 2.293.159 40.9 40.9 0 0 1 4.9 2.194c1.077.442 2.241.683 3.288 1.206 1.247.624 2.2 1.894 3.564 2.211a3.326 3.326 0 0 0 1.811-.271 4.166 4.166 0 0 1 1.536-.312c.788.041 1.411.818 2.2.9a2.3 2.3 0 0 0 1.047-.223 2.147 2.147 0 0 1 1.129-.212c.37.07.2.958.576.964.506.018.724-.8 1.223-.9.347-.071.6.47.947.47a4.355 4.355 0 0 0 2.476-.47 2.491 2.491 0 0 0 .935-1.911c.029-1.041-1.071-2-.835-3.017.259-1.153 1.741-1.706 2.159-2.812a13.589 13.589 0 0 0 .941-5.334c-.071-1.976-1.211-3.805-1.353-5.781-.035-.553 1.059-.929.859-1.447-.241-.6-1.458-.241-1.747-.818-.535-1.053-.006-2.423-.458-3.511a1.982 1.982 0 0 0-1.494-1.146 1.782 1.782 0 0 0-1.676.817c-.371.706.353 1.658.011 2.382a3.432 3.432 0 0 1-2.111 2.058c-.535.106.153-1.388-.358-1.588a1.6 1.6 0 0 0-1.229.241 1.56 1.56 0 0 1-1.235.23c-.606-.265-.059-1.676-.694-1.847a4.142 4.142 0 0 0-2.188.259 3.534 3.534 0 0 1-2.364.188c-1.329-.535-1.506-2.541-2.676-3.37a1.37 1.37 0 0 0-1.093-.047 1.742 1.742 0 0 1-.994.024c-.647-.264-.877-1.177-1.529-1.441a7.625 7.625 0 0 0-2.271-.771.554.554 0 0 0-.606.406M4.022 15.645c-.664.658-.212 1.97.218 2.8a10.791 10.791 0 0 0 2.964 3.335c2.023 1.612 4.564 2.511 6.5 4.217.612.53.312 1.694.894 2.259a9.316 9.316 0 0 0 2.864 1.417c.982.441 1.917 1.382 2.994 1.241.588-.077.688-1.135.518-1.7a16.722 16.722 0 0 0-2.405-4.746c-.435-.635-1.059-1.394-1.823-1.4-.212-.006-.206.347-.177.7.036.412.112.823-.088.67-1.259-.97-1.758-2.67-2.876-3.793-.788-.788-1.988-1.077-2.782-1.871-.394-.394-.271-1.135-.646-1.553a6.053 6.053 0 0 0-2.647-2.035 6.427 6.427 0 0 0-1.529-.2 2.769 2.769 0 0 0-1.982.659m32.835-1.612a6.16 6.16 0 0 0-1.905 2.482 3.549 3.549 0 0 0 .306 2.341 6.348 6.348 0 0 0 1.476 2.188c.594.588 1.546.747 2.111 1.365s.664 1.564 1.188 2.223c.559.712 1.288 2.353 2.023 1.823 1.106-.812.935-2.629.965-4a12.531 12.531 0 0 0-.794-3.764 8.486 8.486 0 0 0-1.094-2.688 7.547 7.547 0 0 0-2.723-2.623.646.646 0 0 0-.276-.059 2.257 2.257 0 0 0-1.276.712m-23.8-3.288c-.541.141-.847.888-.853 1.447a5.219 5.219 0 0 0 .841 3.017 6.946 6.946 0 0 0 2.976 2.294c.223.094.47-.082.706-.253.259-.182.506-.371.724-.235.458.288.094 1.117.359 1.594a15.92 15.92 0 0 0 2.582 3.829 8.973 8.973 0 0 0 3.4 2.088 2.021 2.021 0 0 0 2.047-.271c.43-.476.129-1.323-.1-1.923-.17-.459-.747-.653-1.029-1.053a17.057 17.057 0 0 0-1.352-2.353c-.724-.753-1.835-1.041-2.605-1.747a10.443 10.443 0 0 1-1.276-1.77 23.709 23.709 0 0 0-1.806-2.441 7.807 7.807 0 0 0-2.153-1.652 4.938 4.938 0 0 0-1.994-.63 1.8 1.8 0 0 0-.464.059"/><path class="b" d="M18.5 32.269a6.27 6.27 0 0 0-2.758 1.461c-.441.343-1.047.873-.894 1.408a7.5 7.5 0 0 0 2.141 3.084 8.731 8.731 0 0 0 2.47 1.507 12.693 12.693 0 0 0 3.587 1.374c1.353.192 3.123.657 4.1-.291.647-.634-.852-1.606-1.464-2.269-.565-.623-1.488-.867-2.006-1.519s-.512-1.607-.994-2.281a6.461 6.461 0 0 0-1.917-1.8 4.125 4.125 0 0 0-1.976-.7 1.619 1.619 0 0 0-.288.023M16.384 9.96a3.7 3.7 0 0 0 .165 2.491 7.787 7.787 0 0 0 1.276 2.368 22.226 22.226 0 0 0 2.117 2.159 10.536 10.536 0 0 1 1.535 1.531c.57.867.671 2 1.294 2.828.54.716 1.458 1.071 2.105 1.694.347.343.447.936.871 1.181.553.32 1.341.751 1.882.407a1.987 1.987 0 0 0 .594-1.955 8.7 8.7 0 0 0-1.5-3.654 15.748 15.748 0 0 0-3.358-3.143c-.43-.332-1.306-.111-1.512-.605-.188-.46.823-.832.712-1.315a6.851 6.851 0 0 0-1.77-3.277 5.244 5.244 0 0 0-2.84-1.309 2.141 2.141 0 0 0-.283-.018 1.4 1.4 0 0 0-1.288.617m32.965-3.4a5.947 5.947 0 0 0-.247 4.347c.129.524 1.453.076 1.506.611.077.67-1.223.925-1.259 1.6-.077 1.35 1.082 2.6.947 3.951-.059.629-1.305.623-1.459 1.24-.282 1.17.641 2.444.288 3.6a4.614 4.614 0 0 1-2.253 2.834c-.282.128-.43-.245-.594-.617-.142-.326-.3-.652-.565-.646-.835.024-1.276 1.443-2.111 1.35-2.347-.25-4.329-2.328-6.693-2.31-1.217.011-1.523 2.38-2.735 2.386a3.983 3.983 0 0 1-2.341-1.181 3.648 3.648 0 0 0-2.488-1.181c-.965.1-.323 1.938-.106 2.869.153.675 1.012 1.048 1.171 1.723s-.63 1.42-.324 2.043c.635 1.274 2.576 1.769 2.894 3.154.336 1.472-1.335 2.875-1.188 4.376.065.646 1.547.337 1.712.966.206.809-1.047 1.524-.871 2.339.112.524 1.7.1 1.512.605a3.444 3.444 0 0 1-2.376 1.723 1.864 1.864 0 0 1-1.165-.2 1.77 1.77 0 0 0-1.182-.192 1.777 1.777 0 0 0-1.083 1.5 1.941 1.941 0 0 0 .888 1.641c1 .623 2.441.326 3.388 1.019.518.372-.029 1.507.518 1.833.259.152.529-.064.812-.279.253-.186.506-.378.758-.314 1.929.448 3.547 1.856 5.481 2.246a13.789 13.789 0 0 0 5.417-.058c1.159-.227 1.953-1.583 3.129-1.653 1.041-.058 1.806 1.158 2.841 1.309a2.5 2.5 0 0 0 2.035-.611 4.212 4.212 0 0 0 .87-2.333c.059-.349-.435-.681-.311-1.007.182-.472 1.029-.553 1.094-1.048.047-.367-.847-.343-.859-.715-.023-.733.741-1.321.782-2.054.047-.786-.617-1.519-.529-2.3.117-1.112 1.2-2.048 1.123-3.172-.094-1.379-1.188-2.514-1.6-3.835-.347-1.106-.394-2.275-.658-3.4a40.646 40.646 0 0 1-1.359-5.133c-.13-1.333.417-2.654.453-3.992.053-2.154-.029-4.312-.182-6.46-.159-2.223.2-4.615-.747-6.634a1.116 1.116 0 0 0-1.053-.483 1.527 1.527 0 0 0-1.282.547M22.694 1.931c-.953.687-1.129 2.194-1.023 3.358a5.908 5.908 0 0 0 1.576 2.91c.347.442 1.094.436 1.424.885.652.9.741 2.118 1.394 3.014.923 1.275 2.523 2.037 3.27 3.422.106.2-.211.1-.57.006-.376-.1-.794-.2-.829.035-.118.745.535 1.479 1.082 2a16.929 16.929 0 0 0 4.293 3.125c.536.25 1.594.326 1.764-.233.312-1.024-.459-2.095-.741-3.125a9.345 9.345 0 0 0-.923-3.026c-.465-.652-1.659-.553-2.088-1.234-1.365-2.17-1.835-4.795-3.094-7.03a10.729 10.729 0 0 0-2.807-3.439 3.89 3.89 0 0 0-2.041-.867 1.154 1.154 0 0 0-.688.2m10.169-.465a2.438 2.438 0 0 0-.118 2.41c.788 1.775 2.453 3.061 3.311 4.807a19.584 19.584 0 0 1 1.247 4.493c.241 1.152-.023 2.433.465 3.5a5.694 5.694 0 0 0 2.117 2.165c.57.384 1.529 1.106 1.976.594.812-.931.741-2.4.647-3.626a17.472 17.472 0 0 0-1.253-4.952c-.547-1.42-1.682-2.572-2.17-4.01-.341-.989.171-2.182-.276-3.137-.659-1.391-1.447-3.066-2.9-3.614a1.492 1.492 0 0 0-.53-.093 3.8 3.8 0 0 0-2.517 1.466"/><path class="c" d="M23.434 40.051c-.018.4-.37.653-.747.9a3.466 3.466 0 0 0 .359.059c1.353.194 3.123.664 4.1-.294.647-.641-.853-1.623-1.465-2.293-.565-.63-1.488-.876-2.005-1.535s-.512-1.623-.994-2.305a6 6 0 0 0-.518-.641c.065 2.029 1.388 4.047 1.271 6.111m-7.693-6.493c-.441.347-1.047.882-.894 1.423a6.881 6.881 0 0 0 1.865 2.835 2.96 2.96 0 0 0 1.617-.37c.594-.359.023-1.423-.265-2.052a6.028 6.028 0 0 0-1.664-2.341 19.07 19.07 0 0 0-.659.506m14.344-4.6c.636 1.288 2.576 1.788 2.894 3.188.336 1.488-1.335 2.906-1.188 4.423.065.653 1.547.341 1.711.977.206.817-1.047 1.541-.87 2.364.111.53 1.7.1 1.511.612a3.444 3.444 0 0 1-2.376 1.741 1.848 1.848 0 0 1-1.165-.2 1.757 1.757 0 0 0-1.182-.194 1.8 1.8 0 0 0-1.082 1.518 1.964 1.964 0 0 0 .888 1.659c1 .629 2.441.329 3.387 1.029.518.376-.029 1.523.518 1.852.259.153.53-.065.812-.276.253-.194.506-.388.759-.324 1.929.453 3.547 1.876 5.481 2.27a13.727 13.727 0 0 0 5.411-.053 1.339 1.339 0 0 1-.006-.629c.259-1.153 1.741-1.706 2.158-2.812a13.6 13.6 0 0 0 .941-5.334c-.071-1.976-1.211-3.805-1.353-5.781-.035-.553 1.059-.929.859-1.447-.241-.6-1.458-.241-1.747-.817-.535-1.053-.006-2.423-.459-3.511a1.983 1.983 0 0 0-1.494-1.147 1.784 1.784 0 0 0-1.676.818c-.37.706.353 1.658.012 2.382a3.432 3.432 0 0 1-2.111 2.059c-.535.106.153-1.388-.359-1.588a1.6 1.6 0 0 0-1.229.241 1.56 1.56 0 0 1-1.235.23c-.606-.265-.059-1.676-.694-1.847a4.142 4.142 0 0 0-2.188.259 3.535 3.535 0 0 1-2.365.188c-1.205-.482-1.464-2.17-2.364-3.1-.165.435-.382.87-.2 1.259m9.945-4.329c.559.712 1.288 2.353 2.023 1.823a2.682 2.682 0 0 0 .912-2 27.209 27.209 0 0 1-3.876-1.717 16.7 16.7 0 0 0 .941 1.894m-2.629-11.039a7.922 7.922 0 0 0 .365 2.729 5.725 5.725 0 0 0 2.117 2.188c.571.388 1.529 1.117 1.977.6a2.488 2.488 0 0 0 .341-.518 8.3 8.3 0 0 0-1.07-2.588 7.547 7.547 0 0 0-2.723-2.623.65.65 0 0 0-.276-.059 1.412 1.412 0 0 0-.73.271m-20.855-1.535a7.91 7.91 0 0 0 1.276 2.394 22.418 22.418 0 0 0 2.117 2.182 10.617 10.617 0 0 1 1.535 1.547c.57.876.67 2.017 1.294 2.858.541.723 1.458 1.082 2.105 1.712.347.347.447.947.87 1.193.071.041.141.083.218.118a2.489 2.489 0 0 0-.229-1.729c-.171-.459-.747-.653-1.029-1.053a17.07 17.07 0 0 0-1.353-2.353c-.723-.753-1.835-1.041-2.605-1.747a10.451 10.451 0 0 1-1.276-1.77 23.749 23.749 0 0 0-1.805-2.441 10.767 10.767 0 0 0-1.153-1.035l.035.124z"/><path class="d" d="M23.434 40.051c-.018.4-.37.653-.747.9a3.466 3.466 0 0 0 .359.059c1.353.194 3.123.664 4.1-.294.647-.641-.859-1.623-1.465-2.293-.565-.63-1.488-.876-2.005-1.535s-.512-1.623-.994-2.305a6.666 6.666 0 0 0-.518-.647c.065 2.035 1.388 4.052 1.271 6.116m-7.693-6.493c-.441.347-1.047.882-.894 1.423a6.919 6.919 0 0 0 1.865 2.835 2.971 2.971 0 0 0 1.617-.37c.594-.359.023-1.423-.265-2.052a6.072 6.072 0 0 0-1.664-2.341 19.07 19.07 0 0 0-.659.506m14.344-4.6c.636 1.288 2.576 1.788 2.894 3.188.336 1.488-1.335 2.906-1.188 4.423.065.653 1.547.341 1.711.977.206.817-1.047 1.541-.87 2.364.117.53 1.7.1 1.511.612a3.444 3.444 0 0 1-2.376 1.741 1.848 1.848 0 0 1-1.165-.2 1.756 1.756 0 0 0-1.182-.194 1.8 1.8 0 0 0-1.082 1.518 1.964 1.964 0 0 0 .888 1.658c1 .63 2.441.329 3.387 1.029.518.376-.029 1.523.518 1.852.259.153.53-.065.812-.282.253-.188.506-.382.759-.318 1.929.453 3.547 1.876 5.481 2.27a13.729 13.729 0 0 0 5.411-.053 1.339 1.339 0 0 1-.006-.629c.259-1.153 1.741-1.706 2.158-2.812a13.6 13.6 0 0 0 .941-5.334c-.071-1.976-1.211-3.805-1.353-5.781-.035-.553 1.059-.929.859-1.447-.241-.6-1.458-.241-1.747-.818-.535-1.053-.006-2.423-.459-3.511a1.983 1.983 0 0 0-1.494-1.147 1.784 1.784 0 0 0-1.676.818c-.37.706.353 1.658.012 2.382a3.432 3.432 0 0 1-2.111 2.059c-.535.106.153-1.388-.359-1.588a1.6 1.6 0 0 0-1.229.241 1.56 1.56 0 0 1-1.235.23c-.606-.265-.059-1.676-.694-1.847a4.134 4.134 0 0 0-2.188.259 3.535 3.535 0 0 1-2.365.188c-1.205-.482-1.464-2.17-2.364-3.1-.165.435-.382.87-.2 1.259m9.945-4.329c.559.712 1.288 2.353 2.023 1.823a2.682 2.682 0 0 0 .912-2 26.913 26.913 0 0 1-3.876-1.717 16.693 16.693 0 0 0 .941 1.894m-2.629-11.039a7.9 7.9 0 0 0 .365 2.729 5.768 5.768 0 0 0 2.117 2.188c.571.388 1.529 1.117 1.977.6a2.485 2.485 0 0 0 .341-.518 8.3 8.3 0 0 0-1.07-2.588 7.548 7.548 0 0 0-2.723-2.623.65.65 0 0 0-.276-.059 1.411 1.411 0 0 0-.73.271m-20.855-1.535a7.911 7.911 0 0 0 1.276 2.394 22.425 22.425 0 0 0 2.117 2.182 10.613 10.613 0 0 1 1.535 1.547c.57.876.67 2.017 1.3 2.858.535.723 1.453 1.082 2.1 1.712.347.347.447.947.87 1.194.071.041.141.077.218.118a2.489 2.489 0 0 0-.229-1.729c-.171-.459-.747-.653-1.029-1.053a17.065 17.065 0 0 0-1.353-2.353c-.723-.753-1.835-1.041-2.605-1.747a10.451 10.451 0 0 1-1.276-1.77 23.762 23.762 0 0 0-1.805-2.441 10.767 10.767 0 0 0-1.153-1.035l.035.124z"/><path class="d" d="M22.191 34.258v.011l.011.094v.011l.012.106.018.1v.011l.017.106.012.1.012.035.011.077v.011l.018.094.006.023.024.077v.029l.023.082.006.024.017.076.006.029c.018.065.035.136.053.206l.011.041.012.047.017.059.018.071.006.006.023.094.006.023.053.171.041.147.065.2.059.177.1.312.059.182.059.2.012.035.023.082.006.012.029.094.006.018c.018.059.035.129.053.188l.018.059.017.065.012.023.018.088.006.012.024.088.011.041.012.047.018.059.011.053.006.041.017.065.012.047c.011.071.029.135.041.206l.006.017.011.089.006.029.012.065.011.047.006.065.012.035.006.065.006.047.006.059.006.041.012.105.012.106v.023l.006.071v.047l.006.071v.347l-.006.106v.035l-.006.041-.006.035-.012.036v.006l-.006.029-.017.035v.006l-.012.023v.006l-.012.023-.006.012-.018.029-.018.023-.006.018-.012.018-.011.011-.012.012-.012.023-.006.006a2.461 2.461 0 0 1-.576.47 3.614 3.614 0 0 0 .359.059c1.353.194 3.123.664 4.1-.294.647-.641-.859-1.623-1.464-2.293-.564-.63-1.488-.877-2.005-1.535s-.512-1.624-.994-2.305a6.871 6.871 0 0 0-.518-.647c.005.106.011.218.023.324m-6.446-.7c-.441.347-1.047.882-.894 1.423a6.916 6.916 0 0 0 1.864 2.834 3.114 3.114 0 0 0 1.282-.205l.018-.006.029-.012.018-.006.035-.017.029-.012.012-.006.041-.023.011-.006.035-.017.012-.006.094-.053c.594-.359.024-1.423-.265-2.052l-.035-.077-.006-.006-.006-.018-.011-.023-.112-.235-.035-.065-.011-.017v-.003l-.024-.041-.029-.059-.029-.059-.065-.123-.006-.012-.065-.111-.006-.012-.041-.071-.011-.023-.018-.024v-.005l-.047-.071-.006-.024c-.089-.129-.177-.265-.265-.388l-.006-.006a4.157 4.157 0 0 0-.741-.794h-.006l-.029-.029-.006-.006-.047-.035c-.223.164-.447.335-.659.506m14.345-4.6c.635 1.288 2.576 1.788 2.894 3.188.335 1.488-1.335 2.905-1.188 4.423.065.653 1.546.341 1.711.976.206.818-1.047 1.541-.87 2.365.118.529 1.7.1 1.512.612a3.448 3.448 0 0 1-2.37 1.74 1.847 1.847 0 0 1-1.165-.2 1.756 1.756 0 0 0-1.182-.194 1.8 1.8 0 0 0-1.082 1.518 1.966 1.966 0 0 0 .888 1.658c1 .629 2.441.329 3.387 1.029.518.376-.029 1.523.518 1.852.259.153.53-.065.812-.276.253-.194.506-.388.759-.324 1.929.453 3.547 1.876 5.481 2.27a13.736 13.736 0 0 0 5.411-.053l-.012-.035v-.006l-.006-.029v-.027l-.006-.018-.006-.029v-.012l-.006-.041v-.1a1.026 1.026 0 0 1 0-.135v-.047l.006-.006.011-.094v-.006l.012-.041c.259-1.153 1.741-1.706 2.159-2.811a13.588 13.588 0 0 0 .941-5.334c-.071-1.976-1.211-3.806-1.353-5.782-.035-.552 1.059-.929.859-1.447-.242-.6-1.459-.241-1.747-.818-.535-1.053-.006-2.423-.459-3.511a1.98 1.98 0 0 0-1.494-1.147 1.782 1.782 0 0 0-1.676.818c-.371.706.353 1.658.011 2.382a3.43 3.43 0 0 1-2.111 2.058c-.535.106.153-1.388-.359-1.588a1.6 1.6 0 0 0-1.229.241 1.56 1.56 0 0 1-1.235.229c-.606-.265-.059-1.676-.694-1.846a4.141 4.141 0 0 0-2.188.259 3.535 3.535 0 0 1-2.365.188l-.059-.023-.018-.011-.041-.018-.029-.012-.024-.011-.023-.018-.035-.017-.018-.012-.035-.017-.024-.018-.029-.018-.023-.017-.018-.012-.036-.023-.011-.012-.029-.023-.029-.029-.018-.012-.047-.041-.018-.012-.023-.029-.024-.023-.023-.018-.029-.029-.012-.017-.023-.024-.023-.023-.018-.017-.017-.024-.024-.029-.018-.023-.024-.029-.018-.018-.023-.035-.006-.006a2.013 2.013 0 0 1-.129-.182l-.006-.006-.029-.041-.006-.017-.029-.036-.006-.017a12.763 12.763 0 0 0-1.288-2.1c-.165.435-.382.87-.2 1.259m9.722-4.658l.006.011.041.059.017.029v.006l.065.1.006.006.011.023.012.006.012.017.006.018.018.017.006.006.023.029c.559.712 1.288 2.353 2.023 1.823l.041-.036.011-.005.041-.035.006-.006.047-.035v-.006l.041-.041.012-.006.029-.035.012-.011.029-.03.012-.011.029-.035.012-.011.023-.03.017-.023.024-.029.017-.018.012-.023a3.368 3.368 0 0 0 .494-1.57 27.242 27.242 0 0 1-3.876-1.717c.294.482.441 1.064.718 1.565m-1.647-10.981h-.107l-.017.006h-.006l-.011.006h-.041l-.018.006-.023.006h-.012l-.035.012-.018.005h-.018v.006a1.911 1.911 0 0 0-.453.223 7.893 7.893 0 0 0 .365 2.729 5.764 5.764 0 0 0 2.117 2.188c.57.388 1.529 1.117 1.976.6a2.484 2.484 0 0 0 .341-.518c-.147-.506-.294-1.018-.488-1.506l-.018-.047h-.006l-.012-.041-.053-.118v-.006l-.012-.023-.012-.024-.005-.011-.012-.024-.006-.017-.012-.024-.006-.017-.011-.023-.006-.006-.035-.077-.006-.006-.017-.035-.018-.041-.006-.006-.017-.035-.023-.035v-.012l-.018-.023-.005-.017c-.03-.047-.053-.095-.088-.147l-.041-.071-.006-.012-.041-.053-.035-.053-.053-.077a7.546 7.546 0 0 0-2.723-2.623l-.017-.006-.012-.006-.018-.006-.005-.005-.047-.012-.012-.006h-.017l-.012-.006h-.029l-.006-.006h-.006l-.024-.006h-.041zm-21.614-1.264a7.9 7.9 0 0 0 1.276 2.393 22.481 22.481 0 0 0 2.117 2.182 10.615 10.615 0 0 1 1.535 1.547c.57.876.67 2.017 1.3 2.858.535.723 1.453 1.082 2.1 1.711.347.347.447.947.87 1.194.071.041.141.077.218.118a2.036 2.036 0 0 0-.106-1.406l-.006-.011-.023-.071-.035-.088-.023-.065-.018-.041-.017-.047c-.171-.458-.747-.652-1.029-1.053a17.141 17.141 0 0 0-1.353-2.352c-.724-.753-1.835-1.041-2.606-1.747a10.426 10.426 0 0 1-1.276-1.77 23.763 23.763 0 0 0-1.806-2.441l-.059-.059-.059-.053-.035-.035-.017-.023-.024-.023-.035-.03-.077-.082-.006-.006a10.856 10.856 0 0 0-.841-.724l.035.124z"/><path class="d" d="M23.434 40.051c-.018.4-.37.653-.747.9l.306.053.041.006h.011c.194.029.388.065.594.1l.135.017c.159.03.318.053.488.077l.065.012c.071.006.141.017.212.023l.07.012c.071.006.142.011.212.023h.071l.135.011.071.006a1.209 1.209 0 0 1 .141.006h.27c.047 0 .088-.006.129-.006l.071-.006a.873.873 0 0 0 .129-.011l.124-.018h.018l.118-.023.059-.011.065-.012.059-.018.065-.017.1-.035.076-.023.071-.03.1-.047.106-.059.053-.029.053-.035.047-.035.053-.041.047-.041.047-.041.047-.041.029-.035.023-.03.035-.047.018-.029.018-.047.018-.035.006-.029.006-.035.006-.071c0-.612-1.117-1.382-1.623-1.935-.565-.63-1.488-.876-2.005-1.535a2.643 2.643 0 0 1-.388-.771l-.023-.065a5.562 5.562 0 0 0-.582-1.47c-.035-.047-.065-.094-.1-.135a5.78 5.78 0 0 0-.418-.506c.065 2.029 1.388 4.047 1.271 6.111m-7.246-6.84l-.023.018-.012.006-.053.047-.018.012-.035.023-.006.006c-.1.077-.2.153-.3.235l-.182.147-.047.041-.012.018-.035.023-.011.006-.035.035-.024.023-.088.077a2.24 2.24 0 0 0-.4.529l-.012.035-.035.088a.711.711 0 0 0-.012.4 3.825 3.825 0 0 0 .218.612l.006.006.017.041.006.012.018.041.006.012.018.029a8.306 8.306 0 0 0 1.576 2.082 2.971 2.971 0 0 0 1.617-.371c.594-.359.023-1.423-.265-2.052a6.072 6.072 0 0 0-1.664-2.341l-.212.159m13.9-4.252a4.366 4.366 0 0 0 1.4 1.423l.053.041.111.088.059.041.112.089.117.094.071.053c.053.041.094.083.141.123s.1.089.141.13l.006.006a2.193 2.193 0 0 1 .682 1.1 3.412 3.412 0 0 1-.523 2.2l-.053.111-.024.047c-.035.077-.077.153-.111.229l-.024.047c-.035.076-.071.147-.106.223l-.023.065a4.193 4.193 0 0 0-.206.547c-.018.053-.029.106-.047.159l-.023.1-.023.129-.018.141-.005.071a2.3 2.3 0 0 0 0 .353.33.33 0 0 0 .041.135l.065.088.018.017.023.018.024.017.023.018.053.029.024.012.029.018.035.012.024.011.035.012.065.023c.47.135 1.147.147 1.253.565a1.008 1.008 0 0 1-.147.747l-.023.035-.018.035-.023.036-.041.076-.024.035c-.035.047-.065.094-.1.141l-.023.035c-.083.123-.165.247-.241.365a2.093 2.093 0 0 0-.077.135l-.029.047-.047.111-.036.071-.011.041-.018.07-.011.041-.006.035-.006.035-.006.041v.076l.006.077.012.077c.117.53 1.7.1 1.511.612a1.283 1.283 0 0 1-.094.206l-.023.053-.035.059-.035.053-.089.124-.106.123a2.24 2.24 0 0 1-.159.171l-.005.006a4.471 4.471 0 0 1-1.829.947.794.794 0 0 1-.259.041h-.071l-.071-.012h-.041l-.035-.006c-.059-.012-.123-.029-.182-.041a3.272 3.272 0 0 1-.223-.077c-.223-.082-.447-.182-.67-.253a1.239 1.239 0 0 0-.794-.047 1.271 1.271 0 0 0-.435.241l-.006.012-.041.029-.035.041-.035.029-.041.041v.006l-.035.047h-.028a2.117 2.117 0 0 0-.394.776l-.006.036-.012.053-.006.035a1.681 1.681 0 0 0-.023.171v.094a1.36 1.36 0 0 0 .006.147l.006.029a1.992 1.992 0 0 0 .876 1.388l.117.071.053.029.094.041.1.041.059.029.047.011.053.018.047.018.065.017.041.012c.112.035.229.059.341.082l.041.006c.047.012.088.018.135.029.065.012.123.024.188.029l.094.018.077.011.106.012.053.012a3.6 3.6 0 0 1 1.676.541c.318.229.235.747.247 1.188a1.05 1.05 0 0 1 .006.135l.018.088.012.065.006.029.006.03.011.029.018.053.035.077a.58.58 0 0 0 .159.159.484.484 0 0 0 .165.053h.041l.029-.006.041-.006.024-.011.077-.024a4.479 4.479 0 0 0 .659-.447l.011-.006a.655.655 0 0 1 .524-.153 7.005 7.005 0 0 1 1.17.388l.118.053c.088.035.171.077.259.117.43.194.847.418 1.27.642l.259.135c.259.129.524.265.782.382l.118.047c.053.029.112.053.165.077l.047.017c.076.029.147.065.217.088a1.776 1.776 0 0 1 .194.077 1.32 1.32 0 0 1 .171.059c.071.017.142.041.212.065l.094.023c.135.041.271.071.406.1l.171.036a13.8 13.8 0 0 0 5.24-.089 1.338 1.338 0 0 1-.006-.629c.259-1.153 1.741-1.706 2.158-2.812a13.593 13.593 0 0 0 .941-5.334c-.071-1.976-1.211-3.805-1.353-5.781-.035-.553 1.059-.929.859-1.447-.241-.6-1.459-.241-1.747-.818-.535-1.053-.006-2.423-.458-3.511a1.983 1.983 0 0 0-1.494-1.147 1.784 1.784 0 0 0-1.676.818c-.371.706.353 1.658.012 2.382a3.432 3.432 0 0 1-2.111 2.059c-.535.106.153-1.388-.359-1.588a1.6 1.6 0 0 0-1.229.241 1.56 1.56 0 0 1-1.235.23c-.606-.265-.059-1.676-.694-1.847a4.133 4.133 0 0 0-2.187.259 3.536 3.536 0 0 1-2.365.188c-1.2-.482-1.464-2.17-2.364-3.105-.165.435-.382.87-.2 1.259m9.945-4.329c.559.712 1.288 2.353 2.023 1.824a2.681 2.681 0 0 0 .911-2 26.9 26.9 0 0 1-3.876-1.717 16.692 16.692 0 0 0 .941 1.894M20.008 16.7l-.071-.071zm17.391-3.111a7.922 7.922 0 0 0 .365 2.729 3.373 3.373 0 0 0 .447.723l.012.012.077.1.012.011.053.065.012.006.053.065.1.111.071.065.035.035.065.065.077.071c.059.053.118.105.182.159l.035.035.036.03.111.094c.188.147.376.288.57.418l.03.023c.047.035.094.065.141.1.118.077.241.165.382.259l.024.017.194.123.112.071.047.023.035.017.035.024.035.023c.424.223.859.341 1.112.041.053-.059.094-.118.141-.177l.006-.011.024-.029c.059-.1.117-.2.17-.3a8.3 8.3 0 0 0-1.07-2.588 7.546 7.546 0 0 0-2.723-2.623.649.649 0 0 0-.276-.059 1.412 1.412 0 0 0-.73.27m-20.855-1.535a7.444 7.444 0 0 0 1.035 2.058l.059.083.018.017c.053.082.111.159.165.236l.029.035.117.153.03.035a13.644 13.644 0 0 0 1.223 1.259v.006l.1.094h.006l.1.1h.006l.047.047.035.029.035.041.082.083.071.059.035.035.035.035.1.1.065.07.071.071a1.225 1.225 0 0 0 .129.118l.047.047.1.094.041.035.117.1.1.088a4.8 4.8 0 0 1 .929.994c.57.876.67 2.017 1.3 2.858a3 3 0 0 0 .394.429c.076.065.153.123.229.182l.053.047.041.03.112.082.106.071.035.024.071.053.071.047.076.047.03.024.041.023.035.023.106.077.053.035.088.065c.053.035.1.071.153.112l.082.065a1.134 1.134 0 0 1 .129.106l.035.029.159.141c.035.041.077.088.111.135l.018.017.012.017.035.053.018.029a4.4 4.4 0 0 0 .518.818l.047.041.006.006.106.076h.012a2.312 2.312 0 0 0 .206.118 2.489 2.489 0 0 0-.229-1.729c-.171-.459-.747-.653-1.029-1.053a17.06 17.06 0 0 0-1.353-2.353c-.723-.753-1.835-1.041-2.605-1.747a10.451 10.451 0 0 1-1.277-1.77 23.744 23.744 0 0 0-1.805-2.441 10.77 10.77 0 0 0-1.153-1.035l.035.124z"/><path class="d" d="M22.231 34.593l.035.229.023.124.018.082c.076.37.182.747.294 1.118l.047.129.053.171.029.105.13.406.065.2.07.229.041.135c.035.123.071.241.106.359l.053.212.029.1a7.375 7.375 0 0 1 .212 1.282c0 .059.006.124.006.189v.288l-.006.1v.035l-.005.018v.023l-.006.018v.017l-.006.018-.006.011v.024l-.006.012-.006.017-.011.035-.006.012-.012.017a1.754 1.754 0 0 1-.682.641l.3.053h.018l.017.006h.024c.194.029.388.065.594.1l.135.018c.159.029.317.053.488.077l.065.011c.071.006.141.018.212.024l.071.012c.071.006.141.011.212.023h.071l.135.011.071.006a1.107 1.107 0 0 1 .141.006h.27c.047 0 .089-.006.129-.006l.071-.006a.936.936 0 0 0 .129-.011l.124-.018h.018l.117-.023.059-.011.065-.012.059-.018.065-.017.1-.035.077-.023.071-.03.1-.047.105-.059.053-.029.053-.035.047-.035.053-.041.047-.041.047-.041.047-.041.03-.035.023-.029.035-.047.017-.029.018-.047.017-.035.006-.029.006-.035.006-.071c0-.612-1.118-1.382-1.624-1.935-.564-.63-1.488-.877-2.006-1.535a2.648 2.648 0 0 1-.388-.771l-.024-.065a5.558 5.558 0 0 0-.582-1.47l-.012-.012-.024-.047-.018-.017-.011-.006-.006-.012-.005-.011-.029-.041-.012-.012a6.308 6.308 0 0 0-.4-.482 6.313 6.313 0 0 0 .065.653m-6.04-1.382l-.024.017-.011.006-.059.047-.011.006c-.112.089-.23.177-.341.271l-.182.147-.047.041-.011.017-.035.024-.012.006-.035.035-.024.023-.089.077a2.235 2.235 0 0 0-.4.529l-.012.035-.035.089a.661.661 0 0 0-.012.4 3.864 3.864 0 0 0 .223.617l.023.053.041.088a8.528 8.528 0 0 0 1.576 2.076 3.074 3.074 0 0 0 1.482-.294l.023-.017.023-.012.023-.012.024-.012.017-.011.024-.012c.594-.359.023-1.423-.265-2.052l-.017-.041-.018-.041-.023-.035-.018-.047-.018-.035-.023-.041-.018-.041-.017-.041-.024-.041-.018-.041-.023-.041-.018-.041-.041-.077-.065-.123-.023-.041a4.984 4.984 0 0 0-1.3-1.611l-.211.159m13.9-4.252a4.369 4.369 0 0 0 1.4 1.423l.053.041.112.088.059.041.112.088.117.094.071.053c.053.041.094.082.141.123s.1.089.141.129l.006.006a2.195 2.195 0 0 1 .682 1.1 3.411 3.411 0 0 1-.524 2.2l-.053.112-.023.047c-.036.077-.077.153-.112.229l-.024.047c-.035.076-.071.147-.105.223l-.024.065a4.223 4.223 0 0 0-.206.547c-.018.053-.029.112-.047.159l-.024.1-.023.13-.018.141-.006.071a2.365 2.365 0 0 0 0 .353.331.331 0 0 0 .041.135l.065.088.018.018.023.018.024.017.023.018.053.029.023.011.029.018.035.011.023.012.035.012.065.023c.47.135 1.147.147 1.253.564a1.009 1.009 0 0 1-.147.747l-.024.036-.018.035-.023.035-.041.077-.023.035c-.035.047-.065.094-.1.141l-.024.035c-.082.123-.165.247-.241.365a2.093 2.093 0 0 0-.077.135l-.029.047-.047.111-.035.071-.012.041-.018.071-.012.041-.006.035-.006.035-.006.041v.076l.006.077.011.077c.118.529 1.7.1 1.512.612a1.3 1.3 0 0 1-.094.206l-.023.053-.035.059-.035.053-.088.123-.106.124c-.047.059-.106.117-.159.171l-.006.006a4.472 4.472 0 0 1-1.829.947.8.8 0 0 1-.259.041h-.071l-.071-.011h-.041l-.035-.006c-.059-.012-.124-.029-.182-.041a2.826 2.826 0 0 1-.224-.077c-.223-.082-.447-.182-.67-.253a1.235 1.235 0 0 0-.794-.047 1.272 1.272 0 0 0-.436.241l-.006.012-.041.029-.035.041-.035.029-.041.041v.006l-.035.047h-.012a2.117 2.117 0 0 0-.394.776l-.006.035-.011.053-.006.035c-.011.053-.017.117-.023.171v.094a1.3 1.3 0 0 0 .006.147l.006.029a1.994 1.994 0 0 0 .876 1.388l.118.071.053.029.094.041.1.041.058.03.048.011.053.018.047.017.065.018.041.011a3.452 3.452 0 0 0 .341.083l.041.006c.047.012.089.017.135.029.065.012.123.023.188.029l.094.018.076.011.106.012.053.011a3.6 3.6 0 0 1 1.676.542c.318.229.236.747.247 1.188a1.051 1.051 0 0 1 .006.135l.018.088.011.065.006.029.006.03.012.029.018.053.035.077a.589.589 0 0 0 .159.159.484.484 0 0 0 .165.053h.041l.029-.006.041-.006.024-.011.077-.024a4.547 4.547 0 0 0 .658-.447l.011-.005a.654.654 0 0 1 .524-.153 6.943 6.943 0 0 1 1.171.388l.117.053c.088.035.171.076.259.117.429.194.847.418 1.271.642l.259.135c.259.129.524.265.782.382l.117.047c.053.029.112.053.165.077l.047.017c.077.029.147.065.217.089a1.745 1.745 0 0 1 .194.077 1.36 1.36 0 0 1 .171.059c.071.017.141.041.212.065l.094.023c.135.041.271.071.406.1a13.736 13.736 0 0 0 5.411-.053l-.011-.041v-.017l-.006-.018v-.029l-.005-.012a1.308 1.308 0 0 1-.012-.265v-.088l.006-.018v-.035l.006-.017.005-.018v-.044l.006-.017.006-.012c.259-1.153 1.741-1.706 2.159-2.811a13.59 13.59 0 0 0 .941-5.334c-.071-1.976-1.211-3.806-1.353-5.782-.035-.552 1.059-.929.859-1.447-.242-.6-1.459-.241-1.747-.817-.535-1.053-.006-2.423-.459-3.511a1.98 1.98 0 0 0-1.494-1.147 1.782 1.782 0 0 0-1.676.818c-.37.706.353 1.658.011 2.382a3.43 3.43 0 0 1-2.111 2.058c-.535.106.153-1.388-.359-1.588a1.6 1.6 0 0 0-1.229.241 1.56 1.56 0 0 1-1.235.229c-.606-.265-.059-1.676-.694-1.846a4.14 4.14 0 0 0-2.188.259 3.534 3.534 0 0 1-2.364.188l-.059-.023-.053-.023-.053-.029-.1-.059-.1-.065-.094-.071a1.135 1.135 0 0 1-.129-.117l-.041-.041-.083-.077-.006-.011-.065-.077-.011-.018c-.594-.718-.912-1.805-1.57-2.493-.165.435-.382.87-.2 1.259m9.8-4.529l.023.035.023.029.059.083.017.029.024.023c.559.712 1.288 2.353 2.023 1.823l.029-.024.023-.023.077-.065.029-.024.024-.023.053-.047.024-.023a3.045 3.045 0 0 0 .653-1.77 27.24 27.24 0 0 1-3.876-1.717c.324.523.47 1.17.794 1.694m-19.873-7.728l-.071-.071zm18.073-3.382a1.27 1.27 0 0 0-.147.024l-.029.006-.041.012-.029.012h-.011l-.094.035v.006a1.632 1.632 0 0 0-.329.176 7.922 7.922 0 0 0 .365 2.729 3.372 3.372 0 0 0 .447.724l.012.012.077.1.011.011.053.065.012.006.053.065.1.111.07.065.036.035.065.065.076.071c.059.053.118.106.182.159l.035.035.035.03.112.094c.188.147.376.288.57.417l.029.024c.047.035.094.065.141.1.118.077.247.165.382.259l.023.018.194.123.112.071.047.024.035.017.035.023.036.024c.423.223.858.341 1.111.041a1.485 1.485 0 0 0 .123-.159l.006-.012.012-.006a2.83 2.83 0 0 0 .2-.341 14.089 14.089 0 0 0-.576-1.7l-.029-.071-.024-.065-.053-.094-.018-.041a2.108 2.108 0 0 0-.071-.135l-.017-.041-.023-.035-.041-.077-.024-.041-.047-.071-.023-.041-.024-.029-.023-.041-.047-.071-.03-.035a7.543 7.543 0 0 0-2.723-2.623l-.011-.006-.018-.006-.012-.006-.017-.006-.017-.006-.029-.005-.012-.006-.029-.006h-.023l-.106-.012h-.047zm-21.537-1.264a7.433 7.433 0 0 0 1.035 2.058l.059.083.017.017c.053.083.112.159.165.235l.029.035.117.153.029.035a13.794 13.794 0 0 0 1.223 1.259v.005l.1.094h.006l.1.1h.006l.047.047.035.029.036.041.082.082.07.059.035.035.035.035.1.1.065.071.071.071a1.254 1.254 0 0 0 .129.118l.047.047.1.094.041.036.117.1.1.089a4.794 4.794 0 0 1 .929.994c.57.876.67 2.017 1.3 2.858a3 3 0 0 0 .394.429c.077.065.153.123.229.182l.053.047.041.03.111.082.106.071.035.023.071.053.071.047.077.047.029.023.041.024.035.023.106.076.053.036.089.065c.053.035.1.071.153.111l.082.065a1.3 1.3 0 0 1 .13.106l.035.029.159.142c.035.041.077.088.112.135l.017.018.012.017.035.053.018.029a4.419 4.419 0 0 0 .518.818l.047.041.006.006.106.076c.071.041.142.077.218.118a1.769 1.769 0 0 0-.047-1.212l-.005-.011-.012-.047-.006-.012-.017-.047-.006-.03-.041-.111-.006-.023-.018-.053-.023-.053-.006-.024-.012-.029-.006-.023-.012-.023-.011-.03c-.171-.459-.747-.652-1.029-1.053a17.134 17.134 0 0 0-1.353-2.352c-.724-.753-1.835-1.041-2.605-1.747a10.4 10.4 0 0 1-1.276-1.77 23.781 23.781 0 0 0-1.806-2.441l-.035-.035-.018-.018-.053-.053-.017-.018-.018-.011-.029-.035a9.169 9.169 0 0 0-.982-.865l.035.124z"/><path class="e" d="M121.765 53.949h12.256v-5.764h-2.878V32.241h2.882v-5.764h-16.538v5.764h7.163v15.944h-2.882v5.764zM57.476 39.922c0 8.263 5.723 14.5 14.409 14.5a15.776 15.776 0 0 0 11.451-4.928l-3.5-4.917a11.191 11.191 0 0 1-7.84 3.5c-4.028 0-7.375-3.652-7.375-8.151 0-4.993 3.229-7.564 7.228-7.564 1.764 0 4.223.612 4.223 2.188v1.5h6.146v-3.617c0-5.146-7.258-6.416-10.528-6.416-8.181 0-14.215 6.034-14.215 13.909"/><path class="e" d="M137.792 51.144c0 1.958.841 2.806 2.8 2.806h12.721c1.959 0 2.805-.847 2.805-2.806v-5.3h-6.146v1.5a.771.771 0 0 1-.847.847h-3.611a.768.768 0 0 1-.847-.847V29.283c0-1.959-.847-2.806-2.806-2.806H131.01v5.763h5.934a.774.774 0 0 1 .847.847zm-54.505 2.805h12.254v-5.764h-2.876v-15.8a11.993 11.993 0 0 1-1.9.147 12.679 12.679 0 0 1-5.646-1.377l.894-1.964a10.631 10.631 0 0 0 4.681 1.205 6.277 6.277 0 0 0 4.846-1.8v-2.117H83.284v5.764h2.882v15.942h-2.882v5.764zm10.087-21.708h2.17v-.818a8.747 8.747 0 0 1-2.17.818"/><path class="e" d="M105.24 53.949h7.228l7.6-20.861c.229-.659.423-.847 1.041-.847h.959v-5.764h-4.8c-1.923 0-2.694.576-3.229 2.229l-4.117 12.833a38.875 38.875 0 0 0-1.035 4.417h-.076a37.512 37.512 0 0 0-1.035-4.417l-4.111-12.833c-.541-1.653-1.305-2.229-3.229-2.229h-1.953a6.87 6.87 0 0 1-5.6 5.764h3.711c.612 0 .806.188 1.035.847l7.6 20.861zm-9.128-27.472h-4.758v3.852c2.365-.276 4.217-1.47 4.758-3.852"/><path class="f" d="M140.249 17.078a6.719 6.719 0 0 1 6.752-6.852 6.71 6.71 0 0 1 6.71 6.852 6.824 6.824 0 0 1-6.71 7.058 6.832 6.832 0 0 1-6.752-7.058m-2.406 0a9.047 9.047 0 0 0 9.158 9.163 9.043 9.043 0 0 0 9.121-9.163 8.968 8.968 0 0 0-9.161-8.988 8.957 8.957 0 0 0-9.122 8.987m-7.457 8.499h2.341v-7.3a11.317 11.317 0 0 1 .482-3.376c.759-2.547 2.582-4.476 5.029-4.476a5.851 5.851 0 0 1 .858.071V8.19a4.566 4.566 0 0 0-.929-.106c-2.723 0-4.646 1.994-5.476 4.617h-.065s.065-.588.065-1.311v-1.171c0-1.376-.653-1.964-2.1-1.964h-2.411v2.035h1.447a.691.691 0 0 1 .759.759z"/><path class="f" d="M122.133 19.525c0 5.781 4.029 6.44 6.028 6.44a6.5 6.5 0 0 0 .994-.071v-2.105a3.865 3.865 0 0 1-.788.071c-1.312 0-3.894-.518-3.894-4.576v-8.816h4.341V8.506h-4.341v-4.79h-2.305v4.79h-2.305v1.959h2.27v9.057zm-14.864 3.682a8.305 8.305 0 0 0 6.646 3.035c3.441 0 6.058-1.97 6.058-4.864 0-5.746-9.71-4.852-9.71-8.746 0-1.682 1.447-2.511 3.858-2.511 1.135 0 2.994.488 2.994 1.758v.823h2.205v-1.476c0-2.447-3.511-3.135-5.27-3.135-3.476 0-6.158 1.547-6.158 4.681 0 5.581 9.7 4.893 9.7 8.675 0 1.829-1.717 2.758-3.646 2.758a7.054 7.054 0 0 1-5.34-2.623zm-4.614.518c0 1.476.623 2.1 2.1 2.1h2.447V23.79h-1.447a.673.673 0 0 1-.759-.752V10.603c0-1.476-.618-2.1-2.094-2.1h-2.447v2.035h1.441a.686.686 0 0 1 .759.752zm-.071-19.144h2.276V1.617h-2.276z"/><path class="f" d="M83.492 16.837c0 5.2 3.07 8.881 7.716 8.881a5.681 5.681 0 0 0 5.44-2.994h.063s-.035.588-.035 1.241v1.512a6.852 6.852 0 0 1-.159 1.529h2.376a9.763 9.763 0 0 0 .129-1.6V11.297a.671.671 0 0 1 .753-.759h1.412V8.503h-2.412c-1.405 0-1.958.659-1.958 1.894v.653h-.071S95.646 8.092 91 8.092s-7.51 3.547-7.51 8.746m8.057 6.781c-3.405 0-5.646-2.688-5.646-6.817s1.964-6.575 5.34-6.575c3.064 0 5.469 1.553 5.469 6.61 0 5.093-2.405 6.781-5.164 6.781M69.773 15.39a5.954 5.954 0 0 1 5.958-5.334c2.547 0 4.752 1.753 4.887 5.334zm-2.547 1.794a8.779 8.779 0 0 0 9.057 9.057 9.811 9.811 0 0 0 6.434-2.482L81.582 22a7.709 7.709 0 0 1-5.2 2.135 6.568 6.568 0 0 1-6.71-6.887h13.286s.071-.759.071-1.171c0-4.3-2.482-7.986-7.263-7.986-4.652 0-8.54 3.4-8.54 9.092m-7.397 8.393h2.341v-7.3a11.315 11.315 0 0 1 .482-3.376c.753-2.547 2.576-4.476 5.022-4.476a5.748 5.748 0 0 1 .859.071V8.19a4.544 4.544 0 0 0-.923-.106c-2.723 0-4.652 1.994-5.475 4.617h-.071a12.265 12.265 0 0 0 .071-1.311v-1.171c0-1.376-.659-1.964-2.1-1.964h-2.412v2.035h1.447a.693.693 0 0 1 .759.759z"/></svg>